<svg width="123" height="118" viewBox="0 0 123 118" fill="none" xmlns="http://www.w3.org/2000/svg">
<path d="M52.5134 116.001C52.5045 116.126 52.4955 116.251 52.4866 116.375C53.8858 116.496 55.1839 116.588 56.5598 116.657C62.6067 116.9 68.9196 116.94 74.6727 114.426C80.6166 111.897 83.5211 105.865 88.1356 102.137C88.355 101.951 88.5804 101.764 88.8123 101.579C97.9303 94.474 111.312 92.1703 117.649 81.3265C118.398 80.1705 119.052 79.009 119.667 77.7745C119.556 77.7171 119.444 77.6598 119.333 77.6025C118.688 78.8063 118.007 79.9339 117.238 81.0524C110.732 91.5242 97.7371 93.4397 88.1877 100.798C87.9478 100.99 87.7147 101.182 87.4878 101.375C82.6861 105.305 79.8839 111.207 74.306 113.634C68.8574 116.117 62.5963 116.246 56.5777 116.164C55.2071 116.133 53.9115 116.08 52.5134 116.001Z" fill="white"/>
<path d="M63.4958 117.001C63.4986 117.126 63.5014 117.251 63.5042 117.376C64.8628 117.366 66.1887 117.315 67.4913 117.212C73.3038 116.778 79.3165 115.137 83.7162 111.025C88.1285 107.008 90.7188 101.544 95.3069 98.083C95.5254 97.9132 95.7464 97.7453 95.9698 97.5791C105.575 91.2028 117.302 84.677 120.616 72.5896C121.036 71.3184 121.383 70.0496 121.682 68.7328C121.561 68.7032 121.439 68.6737 121.318 68.6442C120.981 69.9405 120.599 71.1852 120.15 72.4282C116.505 84.243 105.229 90.2153 95.3728 96.7768C95.144 96.9471 94.9174 97.1193 94.6931 97.2939C89.8888 100.952 87.3184 106.491 83.1284 110.387C78.9691 114.392 73.2007 116.125 67.4454 116.721C66.1594 116.859 64.8457 116.95 63.4958 117.001Z" fill="white"/>
<path d="M43.5593 113.011C43.5198 113.129 43.4802 113.248 43.4407 113.366C44.9228 113.881 46.4632 114.202 48.0221 114.408C62.1485 115.678 76.0896 111.599 89.0639 106.397C90.9965 105.567 92.9311 104.666 94.7477 103.616C105.017 97.7045 114.827 89.5194 119.244 78.2049C119.817 76.7483 120.298 75.2558 120.681 73.7368C120.56 73.7046 120.44 73.6724 120.319 73.6402C119.899 75.1332 119.387 76.5953 118.787 78.0186C114.161 89.0591 104.458 96.9248 94.2523 102.761C92.4907 103.771 90.5791 104.659 88.6707 105.477C75.831 110.628 62.0128 114.839 48.0805 113.917C46.5424 113.752 45.0229 113.475 43.5593 113.011Z" fill="white"/>
<path d="M47.5455 114.507C47.5152 114.628 47.4848 114.749 47.4545 114.87C48.701 115.203 49.9143 115.483 51.1665 115.712C55.9822 116.612 61.2083 116.6 65.8328 114.582C70.5017 112.636 74.0489 108.973 78.2429 106.62C79.5649 105.88 80.8956 105.181 82.2503 104.506C92.1677 99.2401 103.968 96.9978 112.32 88.8084C113.193 87.8799 113.98 86.8708 114.657 85.7907C114.552 85.7225 114.448 85.6544 114.343 85.5863C113.645 86.6227 112.845 87.5838 111.965 88.465C103.624 96.2053 91.8483 98.2975 81.8044 103.611C80.4362 104.292 79.092 105.002 77.7571 105.757C73.3923 108.246 69.9506 111.882 65.4986 113.814C61.0987 115.825 56.0413 115.973 51.2481 115.225C50.0044 115.035 48.7936 114.797 47.5455 114.507Z" fill="white"/>
<path d="M39.5664 111.513C39.5221 111.63 39.4779 111.747 39.4336 111.864C40.8542 112.423 42.2774 112.872 43.7614 113.217C57.5688 116.624 70.441 108.121 81.1881 100.622C81.7096 100.279 82.2443 99.9346 82.7629 99.6131C93.615 93.3919 108.377 92.889 116.665 82.0638C117.604 80.8736 118.431 79.6151 119.163 78.2809C119.054 78.2193 118.946 78.1577 118.837 78.096C118.078 79.3926 117.231 80.6085 116.282 81.7533C107.918 92.1522 93.5761 92.3465 82.2371 98.7638C81.7079 99.0909 81.1656 99.4398 80.6388 99.7861C69.7907 107.336 57.4787 115.718 43.867 112.734C42.3997 112.432 40.9853 112.027 39.5664 111.513Z" fill="white"/>
<path d="M5.1875 60.1885C5.18727 60.1389 5.16749 60.0913 5.13235 60.0562C5.09721 60.0211 5.04961 60.0014 5 60.0014C4.95039 60.0014 4.90279 60.0211 4.86765 60.0562C4.83251 60.0913 4.81273 60.1389 4.8125 60.1885C4.8125 60.1885 4.8125 60.1885 4.8125 60.1885C4.7908 64.7667 5.43352 69.3416 6.64861 73.7574C13.5166 98.6852 37.9123 117.806 64 117.653C79.6139 117.747 94.7539 110.602 105.6 99.5625C115.764 89.243 122.911 75.3029 122.969 60.5904C122.812 33.8986 104.242 7.17974 77.6186 1.46814C73.1508 0.446327 68.5747 -0.0206174 64 0.000976562C63.9504 0.00120454 63.9028 0.0209837 63.8677 0.0561263C63.8326 0.0912674 63.8129 0.138865 63.8129 0.188477C63.8129 0.238088 63.8326 0.285686 63.8677 0.320827C63.9028 0.355969 63.9504 0.375749 64 0.375977C68.5484 0.396048 73.0865 0.899807 77.5067 1.94903C103.82 7.82125 121.95 34.328 122.031 60.5904C121.939 74.9766 114.901 88.6989 104.888 98.8594C94.2038 109.732 79.3389 116.769 64 116.724C38.3601 116.961 14.1366 98.2689 7.12415 73.6245C5.88436 69.2595 5.20752 64.7308 5.1875 60.1885Z" fill="white"/>
<circle cx="5" cy="51.1885" r="4.6" stroke="white" stroke-width="0.8"/>
</svg>
