<svg width="33" height="51" viewBox="0 0 33 51" fill="none" xmlns="http://www.w3.org/2000/svg">
<path d="M5.888 46.2192C5.264 46.2192 4.708 46.0512 4.22 45.7152C3.74 45.3712 3.36 44.8912 3.08 44.2752C2.808 43.6512 2.672 42.9232 2.672 42.0912C2.672 41.2592 2.808 40.5392 3.08 39.9312C3.36 39.3152 3.74 38.8432 4.22 38.5152C4.708 38.1792 5.264 38.0112 5.888 38.0112C6.512 38.0112 7.064 38.1792 7.544 38.5152C8.032 38.8432 8.412 39.3152 8.684 39.9312C8.964 40.5392 9.104 41.2592 9.104 42.0912C9.104 42.9232 8.964 43.6512 8.684 44.2752C8.412 44.8912 8.032 45.3712 7.544 45.7152C7.064 46.0512 6.512 46.2192 5.888 46.2192ZM5.888 45.8592C6.448 45.8592 6.936 45.7032 7.352 45.3912C7.776 45.0792 8.104 44.6432 8.336 44.0832C8.576 43.5152 8.696 42.8512 8.696 42.0912C8.696 41.3312 8.576 40.6752 8.336 40.1232C8.104 39.5632 7.776 39.1312 7.352 38.8272C6.936 38.5232 6.448 38.3712 5.888 38.3712C5.328 38.3712 4.836 38.5232 4.412 38.8272C3.996 39.1312 3.668 39.5632 3.428 40.1232C3.196 40.6752 3.08 41.3312 3.08 42.0912C3.08 42.8512 3.196 43.5152 3.428 44.0832C3.668 44.6432 3.996 45.0792 4.412 45.3912C4.836 45.7032 5.328 45.8592 5.888 45.8592ZM12.9973 46.2192C12.4133 46.2192 11.9013 46.1072 11.4613 45.8832C11.0293 45.6512 10.6613 45.3632 10.3573 45.0192L10.6213 44.7792C10.9013 45.1072 11.2453 45.3712 11.6533 45.5712C12.0693 45.7632 12.5173 45.8592 12.9973 45.8592C13.6373 45.8592 14.1453 45.7032 14.5213 45.3912C14.8973 45.0712 15.0853 44.6592 15.0853 44.1552C15.0853 43.8032 15.0173 43.5232 14.8813 43.3152C14.7453 43.0992 14.5653 42.9232 14.3413 42.7872C14.1253 42.6512 13.8853 42.5232 13.6213 42.4032L12.3973 41.8512C12.1653 41.7472 11.9253 41.6192 11.6773 41.4672C11.4293 41.3072 11.2173 41.1032 11.0413 40.8552C10.8733 40.6072 10.7893 40.2912 10.7893 39.9072C10.7893 39.5312 10.8853 39.2032 11.0773 38.9232C11.2693 38.6352 11.5333 38.4112 11.8693 38.2512C12.2053 38.0912 12.5893 38.0112 13.0213 38.0112C13.5013 38.0112 13.9253 38.1072 14.2933 38.2992C14.6613 38.4832 14.9573 38.6992 15.1813 38.9472L14.9653 39.1872C14.7253 38.9472 14.4453 38.7512 14.1253 38.5992C13.8053 38.4472 13.4373 38.3712 13.0213 38.3712C12.4693 38.3712 12.0213 38.5112 11.6773 38.7912C11.3413 39.0632 11.1733 39.4272 11.1733 39.8832C11.1733 40.2112 11.2493 40.4792 11.4013 40.6872C11.5533 40.8872 11.7373 41.0512 11.9533 41.1792C12.1773 41.2992 12.3813 41.4032 12.5653 41.4912L13.7893 42.0432C14.0933 42.1792 14.3733 42.3312 14.6293 42.4992C14.8853 42.6672 15.0893 42.8792 15.2413 43.1352C15.3933 43.3912 15.4693 43.7232 15.4693 44.1312C15.4693 44.5312 15.3693 44.8912 15.1693 45.2112C14.9693 45.5232 14.6813 45.7712 14.3053 45.9552C13.9373 46.1312 13.5013 46.2192 12.9973 46.2192ZM16.6188 46.0752V41.1152H18.0888V46.0752H16.6188ZM17.3488 40.3852C17.1021 40.3852 16.9021 40.3152 16.7488 40.1752C16.5954 40.0352 16.5188 39.8485 16.5188 39.6152C16.5188 39.3819 16.5954 39.1952 16.7488 39.0552C16.9021 38.9152 17.1021 38.8452 17.3488 38.8452C17.5954 38.8452 17.7954 38.9152 17.9488 39.0552C18.1021 39.1952 18.1788 39.3819 18.1788 39.6152C18.1788 39.8485 18.1021 40.0352 17.9488 40.1752C17.7954 40.3152 17.5954 40.3852 17.3488 40.3852ZM19.3824 46.0752V41.1152H20.5824L20.6824 41.9752H20.7224C20.9024 41.6485 21.1158 41.4052 21.3624 41.2452C21.6158 41.0785 21.8724 40.9952 22.1324 40.9952C22.2724 40.9952 22.3891 41.0052 22.4824 41.0252C22.5758 41.0385 22.6558 41.0619 22.7224 41.0952L22.4424 42.3452C22.3624 42.3252 22.2858 42.3119 22.2124 42.3052C22.1391 42.2919 22.0491 42.2852 21.9424 42.2852C21.7558 42.2852 21.5591 42.3519 21.3524 42.4852C21.1524 42.6185 20.9858 42.8585 20.8524 43.2052V46.0752H19.3824ZM23.3668 46.0752V41.1152H24.8368V46.0752H23.3668ZM24.0968 40.3852C23.8501 40.3852 23.6501 40.3152 23.4968 40.1752C23.3435 40.0352 23.2668 39.8485 23.2668 39.6152C23.2668 39.3819 23.3435 39.1952 23.4968 39.0552C23.6501 38.9152 23.8501 38.8452 24.0968 38.8452C24.3435 38.8452 24.5435 38.9152 24.6968 39.0552C24.8501 39.1952 24.9268 39.3819 24.9268 39.6152C24.9268 39.8485 24.8501 40.0352 24.6968 40.1752C24.5435 40.3152 24.3435 40.3852 24.0968 40.3852ZM27.5905 46.1952C27.2638 46.1952 26.9271 46.1319 26.5805 46.0052C26.2338 45.8785 25.9371 45.6952 25.6905 45.4552L26.3105 44.6252C26.5371 44.8052 26.7605 44.9319 26.9805 45.0052C27.2071 45.0719 27.4238 45.1052 27.6305 45.1052C27.8505 45.1052 28.0105 45.0685 28.1105 44.9952C28.2105 44.9152 28.2605 44.8085 28.2605 44.6752C28.2605 44.5685 28.2138 44.4785 28.1205 44.4052C28.0338 44.3319 27.9171 44.2685 27.7705 44.2152C27.6305 44.1552 27.4705 44.0919 27.2905 44.0252C27.0505 43.9385 26.8305 43.8285 26.6305 43.6952C26.4305 43.5619 26.2705 43.4019 26.1505 43.2152C26.0305 43.0285 25.9705 42.8052 25.9705 42.5452C25.9705 42.0785 26.1438 41.7052 26.4905 41.4252C26.8371 41.1385 27.2938 40.9952 27.8605 40.9952C28.2205 40.9952 28.5471 41.0552 28.8405 41.1752C29.1405 41.2885 29.3971 41.4385 29.6105 41.6252L28.9805 42.4452C28.8005 42.3185 28.6205 42.2285 28.4405 42.1752C28.2605 42.1152 28.0805 42.0852 27.9005 42.0852C27.7138 42.0852 27.5738 42.1219 27.4805 42.1952C27.3871 42.2619 27.3405 42.3552 27.3405 42.4752C27.3405 42.5685 27.3705 42.6485 27.4305 42.7152C27.4971 42.7819 27.6005 42.8452 27.7405 42.9052C27.8805 42.9585 28.0538 43.0185 28.2605 43.0852C28.5138 43.1652 28.7438 43.2719 28.9505 43.4052C29.1638 43.5385 29.3305 43.7019 29.4505 43.8952C29.5705 44.0885 29.6305 44.3219 29.6305 44.5952C29.6305 44.8952 29.5505 45.1652 29.3905 45.4052C29.2371 45.6452 29.0105 45.8385 28.7105 45.9852C28.4105 46.1252 28.0371 46.1952 27.5905 46.1952Z" fill="white"/>
<path d="M13.7202 30.3028C13.7166 30.3527 13.7131 30.4025 13.7095 30.4524C14.0751 30.4868 14.4143 30.5137 14.7741 30.5343C16.3557 30.609 18.0084 30.6311 19.5324 29.9723C21.1105 29.3045 21.8764 27.7197 23.0688 26.7599C23.1256 26.7116 23.1839 26.6634 23.244 26.6153C25.5959 24.7769 29.1184 24.1482 30.7621 21.2897C30.9563 20.9851 31.1254 20.6793 31.2838 20.3547C31.2394 20.3318 31.1949 20.3088 31.1505 20.2859C30.9797 20.5983 30.8 20.8905 30.5979 21.18C28.8863 23.8898 25.5186 24.3632 22.9942 26.303C22.9309 26.3536 22.8695 26.4043 22.8097 26.4551C21.5424 27.4957 20.8174 29.0284 19.3858 29.6552C17.9836 30.3019 16.3516 30.3472 14.7813 30.337C14.4236 30.3314 14.0854 30.3204 13.7202 30.3028Z" fill="white"/>
<path d="M16.5862 30.5643C16.5873 30.6143 16.5884 30.6643 16.5896 30.7143C16.9451 30.7147 17.2923 30.7039 17.6337 30.6796C19.1561 30.5773 20.7437 30.1552 21.9097 29.0734C23.0778 28.0157 23.7558 26.5936 24.9393 25.7032C24.996 25.6591 25.0534 25.6156 25.1113 25.5724C27.6031 23.9196 30.6978 22.1765 31.5406 19C31.6481 18.666 31.7365 18.3329 31.812 17.9875C31.7634 17.9756 31.7148 17.9638 31.6663 17.952C31.5756 18.2892 31.4735 18.6127 31.354 18.9355C30.3789 22.0029 27.4646 23.5246 24.8725 25.2515C24.8124 25.2963 24.7528 25.3416 24.6938 25.3875C23.4238 26.3568 22.7537 27.8091 21.6746 28.8183C20.6047 29.8569 19.1148 30.3161 17.6154 30.4829C17.2806 30.5217 16.9382 30.5481 16.5862 30.5643Z" fill="white"/>
<path d="M11.387 29.5228C11.3712 29.5702 11.3554 29.6176 11.3396 29.6651C11.728 29.803 12.1319 29.8899 12.5405 29.9464C16.2442 30.3023 19.8945 29.246 23.2931 27.8835C23.7997 27.6661 24.3066 27.4298 24.785 27.1528C27.472 25.6031 30.0423 23.4428 31.1815 20.4681C31.3294 20.0853 31.4527 19.6933 31.5503 19.2947C31.502 19.2818 31.4537 19.2689 31.4054 19.2561C31.2933 19.6443 31.1573 20.0241 30.9986 20.3936C29.7756 23.2587 27.2483 25.2913 24.5868 26.8105C24.1305 27.0716 23.6327 27.3026 23.1359 27.5157C19.7911 28.8577 16.1899 29.967 12.5639 29.7503C12.1635 29.7099 11.768 29.6407 11.387 29.5228Z" fill="white"/>
<path d="M12.4264 29.913C12.4143 29.9615 12.4021 30.01 12.39 30.0585C12.7155 30.1484 13.0326 30.2243 13.3603 30.2869C14.6199 30.5326 15.9968 30.539 17.2204 30.0111C18.4551 29.5019 19.3891 28.543 20.4728 27.9381C20.8173 27.7457 21.164 27.5637 21.5169 27.3879C24.0988 26.0156 27.183 25.4195 29.3657 23.249C29.5934 23.0032 29.7981 22.7362 29.9734 22.451C29.9315 22.4238 29.8895 22.3965 29.8476 22.3693C29.6638 22.637 29.454 22.8847 29.2238 23.1116C27.0457 25.1025 23.9711 25.6386 21.3386 27.0299C20.9802 27.2084 20.6281 27.3946 20.2785 27.5926C19.1264 28.2523 18.2347 29.2002 17.0867 29.704C15.953 30.2289 14.6435 30.2769 13.393 30.0921C13.0687 30.0453 12.7525 29.9859 12.4264 29.913Z" fill="white"/>
<path d="M10.3449 29.1322C10.3272 29.1789 10.3095 29.2257 10.2918 29.2725C10.663 29.4217 11.0354 29.542 11.4242 29.6349C15.0447 30.5545 18.4461 28.325 21.2466 26.3694C21.3824 26.2801 21.5216 26.1904 21.6563 26.1068C24.4574 24.4953 28.3427 24.3425 30.5028 21.485C30.7471 21.171 30.9618 20.8393 31.1513 20.4881C31.1078 20.4635 31.0643 20.4388 31.0208 20.4142C30.8207 20.7503 30.5981 21.065 30.3492 21.3609C28.1592 24.0478 24.4419 24.0771 21.446 25.7671C21.3071 25.8529 21.1649 25.9444 21.0269 26.0351C18.186 28.0109 15.0087 30.1922 11.4665 29.442C11.0843 29.3659 10.7155 29.2633 10.3449 29.1322Z" fill="white"/>
<path d="M1.38164 15.7489C1.3815 15.7291 1.37358 15.7101 1.35953 15.696C1.34548 15.682 1.32646 15.6741 1.30664 15.6741C1.28682 15.6741 1.2678 15.682 1.25375 15.696C1.2397 15.7101 1.23178 15.7291 1.23164 15.7489C1.23164 15.7489 1.23164 15.7489 1.23164 15.7489C1.22308 16.9473 1.38861 18.1457 1.70431 19.3027C3.4884 25.8342 9.8732 30.8588 16.7191 30.8246C20.817 30.8527 24.7911 28.9786 27.6354 26.0833C30.3011 23.3765 32.1759 19.7199 32.1884 15.8539C32.1423 8.85144 27.2606 1.85699 20.2844 0.376113C19.114 0.111087 17.916 -0.00833642 16.7191 0.00019531C16.6993 0.000334784 16.6803 0.00825177 16.6663 0.0223045C16.6522 0.0363562 16.6444 0.0553751 16.6444 0.0751953C16.6444 0.0950155 16.6522 0.114034 16.6663 0.128086C16.6803 0.142139 16.6993 0.150056 16.7191 0.150195C17.9054 0.15833 19.0883 0.292479 20.2397 0.568468C27.092 2.1136 31.7975 9.02319 31.8135 15.8539C31.787 19.5893 29.9559 23.1589 27.351 25.802C24.571 28.6306 20.707 30.4613 16.7191 30.4532C10.0523 30.5209 3.73641 25.6677 1.89452 19.2495C1.56894 18.1128 1.38977 16.933 1.38164 15.7489Z" fill="white"/>
<circle cx="1.30614" cy="13.3979" r="1.10614" stroke="white" stroke-width="0.4"/>
</svg>
