<svg width="48" height="48" viewBox="0 0 48 48" fill="none" xmlns="http://www.w3.org/2000/svg">
<g clip-path="url(#clip0_2194_433)">
<path d="M24.1414 9.03884L37.0033 14.1695L24.1414 19.952L11.2796 14.1695L24.1414 9.03884Z" stroke="black" style="stroke:black;stroke-opacity:1;"/>
<path d="M24.1414 13.0388L37.0033 18.1695L24.1414 23.952L11.2796 18.1695L24.1414 13.0388Z" stroke="black" style="stroke:black;stroke-opacity:1;"/>
<path d="M24.1414 17.0388L37.0033 22.1695L24.1414 27.952L11.2796 22.1695L24.1414 17.0388Z" stroke="black" style="stroke:black;stroke-opacity:1;"/>
<path d="M24.1414 21.0388L37.0033 26.1695L24.1414 31.952L11.2796 26.1695L24.1414 21.0388Z" stroke="black" style="stroke:black;stroke-opacity:1;"/>
<path d="M24.1414 25.0388L37.0033 30.1695L24.1414 35.952L11.2796 30.1695L24.1414 25.0388Z" stroke="black" style="stroke:black;stroke-opacity:1;"/>
<path d="M24.1414 29.0388L37.0033 34.1695L24.1414 39.952L11.2796 34.1695L24.1414 29.0388Z" stroke="black" style="stroke:black;stroke-opacity:1;"/>
</g>
<defs>
<clipPath id="clip0_2194_433">
<rect width="48" height="48" fill="white" style="fill:white;fill-opacity:1;"/>
</clipPath>
</defs>
</svg>
