<svg width="24" height="24" viewBox="0 0 24 24" fill="none" xmlns="http://www.w3.org/2000/svg">
<path d="M11 19.431C9.3025 19.1938 7.87817 18.4362 6.727 17.158C5.57567 15.8798 5 14.367 5 12.6195C5 11.6348 5.18492 10.739 5.55475 9.93202C5.92458 9.12502 6.42042 8.39518 7.04225 7.74252L12 2.88477L16.9578 7.74252C17.4423 8.25285 17.8548 8.8221 18.1953 9.45027C18.5356 10.0784 18.7724 10.7553 18.9058 11.481H17.9C17.7833 10.9143 17.5875 10.3801 17.3125 9.87827C17.0375 9.37627 16.6833 8.91693 16.25 8.50027L12 4.30027L7.75 8.50027C7.16667 9.05027 6.72917 9.67427 6.4375 10.3723C6.14583 11.0704 6 11.8195 6 12.6195C6 14.0695 6.47917 15.3413 7.4375 16.4348C8.39583 17.5284 9.58333 18.1919 11 18.4253V19.431ZM13.4538 15.6368L13.1038 14.8388C13.4859 14.6439 13.8793 14.4875 14.2838 14.3695C14.6883 14.2515 15.0937 14.1925 15.5 14.1925C15.8577 14.1925 16.2144 14.2352 16.5703 14.3205C16.9259 14.4057 17.2723 14.5149 17.6095 14.6483C17.9352 14.7816 18.2586 14.9015 18.5798 15.008C18.9009 15.1143 19.241 15.1675 19.6 15.1675C19.9705 15.1675 20.3263 15.1137 20.6673 15.006C21.0083 14.8983 21.341 14.7657 21.6655 14.608L22.0155 15.4253C21.6333 15.6201 21.2368 15.7733 20.826 15.8848C20.415 15.9964 20.0063 16.0523 19.6 16.0523C19.2423 16.0523 18.8856 16.0096 18.5298 15.9243C18.1741 15.8391 17.8277 15.7298 17.4905 15.5965C17.1648 15.4632 16.8414 15.3433 16.5203 15.2368C16.1991 15.1304 15.859 15.0773 15.5 15.0773C15.1295 15.0773 14.7769 15.1311 14.4423 15.2388C14.1078 15.3464 13.7783 15.4791 13.4538 15.6368ZM13.4538 18.2523L13.1038 17.454C13.4859 17.2592 13.8793 17.1028 14.2838 16.9848C14.6883 16.8669 15.0937 16.808 15.5 16.808C15.8577 16.808 16.2144 16.8506 16.5703 16.9358C16.9259 17.0211 17.2723 17.1304 17.6095 17.2638C17.9352 17.3971 18.2586 17.5169 18.5798 17.6233C18.9009 17.7298 19.241 17.783 19.6 17.783C19.9705 17.783 20.3263 17.7292 20.6673 17.6215C21.0083 17.5137 21.341 17.3809 21.6655 17.2233L22.0155 18.0408C21.6333 18.2356 21.2368 18.3888 20.826 18.5003C20.415 18.6118 20.0063 18.6675 19.6 18.6675C19.2423 18.6675 18.8856 18.6249 18.5298 18.5398C18.1741 18.4544 17.8277 18.3451 17.4905 18.2118C17.1648 18.0784 16.8414 17.9586 16.5203 17.8523C16.1991 17.7458 15.859 17.6925 15.5 17.6925C15.1295 17.6925 14.7769 17.7463 14.4423 17.854C14.1078 17.9618 13.7783 18.0946 13.4538 18.2523ZM13.4538 20.8675L13.1038 20.0695C13.4859 19.8747 13.8793 19.7183 14.2838 19.6003C14.6883 19.4823 15.0937 19.4233 15.5 19.4233C15.8577 19.4233 16.2144 19.4659 16.5703 19.5513C16.9259 19.6364 17.2723 19.7457 17.6095 19.879C17.9352 20.0124 18.2586 20.1323 18.5798 20.2388C18.9009 20.3451 19.241 20.3983 19.6 20.3983C19.9705 20.3983 20.3263 20.3444 20.6673 20.2368C21.0083 20.1291 21.341 19.9964 21.6655 19.8388L22.0155 20.656C21.6333 20.8508 21.2368 21.0041 20.826 21.1158C20.415 21.2273 20.0063 21.283 19.6 21.283C19.2423 21.283 18.8856 21.2403 18.5298 21.155C18.1741 21.0698 17.8277 20.9606 17.4905 20.8273C17.1648 20.6939 16.8414 20.574 16.5203 20.4675C16.1991 20.3612 15.859 20.308 15.5 20.308C15.1295 20.308 14.7769 20.3618 14.4423 20.4695C14.1078 20.5772 13.7783 20.7098 13.4538 20.8675Z" fill="#E3E3E3"/>
</svg>
