<svg width="24" height="24" viewBox="0 0 24 24" fill="none" xmlns="http://www.w3.org/2000/svg">
<path d="M12.0003 15.0003C11.1694 15.0003 10.4618 14.7079 9.87727 14.1233C9.2926 13.5388 9.00027 12.8311 9.00027 12.0003C9.00027 11.1694 9.2926 10.4618 9.87727 9.87727C10.4618 9.2926 11.1694 9.00027 12.0003 9.00027C12.8311 9.00027 13.5388 9.2926 14.1233 9.87727C14.7079 10.4618 15.0003 11.1694 15.0003 12.0003C15.0003 12.8311 14.7079 13.5388 14.1233 14.1233C13.5388 14.7079 12.8311 15.0003 12.0003 15.0003ZM12.0003 14.0003C12.5503 14.0003 13.0211 13.8044 13.4128 13.4128C13.8044 13.0211 14.0003 12.5503 14.0003 12.0003C14.0003 11.4503 13.8044 10.9794 13.4128 10.5878C13.0211 10.1961 12.5503 10.0003 12.0003 10.0003C11.4503 10.0003 10.9794 10.1961 10.5878 10.5878C10.1961 10.9794 10.0003 11.4503 10.0003 12.0003C10.0003 12.5503 10.1961 13.0211 10.5878 13.4128C10.9794 13.8044 11.4503 14.0003 12.0003 14.0003ZM17.0445 21.1158C17.2932 20.2079 17.4829 19.304 17.6138 18.404C17.7444 17.504 17.8323 16.613 17.8773 15.731C17.2888 16.7003 16.4683 17.4875 15.4158 18.0925C14.3631 18.6977 13.2246 19.0003 12.0003 19.0003C9.42593 19.0003 7.50893 18.923 6.24927 18.7685C4.9896 18.614 3.8681 18.3951 2.88477 18.1118V17.0445C3.8181 17.3317 4.73477 17.5374 5.63477 17.6618C6.53477 17.7861 7.42585 17.8579 8.30802 17.8773C7.39002 17.3784 6.60927 16.5932 5.96577 15.5215C5.3221 14.4497 5.00027 13.2759 5.00027 12.0003C5.00027 10.2683 5.08393 8.6131 5.25127 7.03477C5.4186 5.4566 5.62468 4.07327 5.86952 2.88477H6.93677C6.70093 3.94643 6.52627 4.89843 6.41277 5.74077C6.29927 6.58293 6.20277 7.43868 6.12327 8.30802C6.66043 7.35152 7.45535 6.5611 8.50802 5.93677C9.56052 5.31243 10.7246 5.00027 12.0003 5.00027C14.1554 5.00027 15.9323 5.07752 17.331 5.23202C18.7297 5.38652 19.9913 5.59902 21.1158 5.86952V6.93677C20.1824 6.6881 19.2465 6.49743 18.308 6.36477C17.3695 6.2321 16.5041 6.14518 15.7118 6.10402C16.7323 6.73102 17.5355 7.57402 18.1215 8.63302C18.7073 9.69202 19.0003 10.8144 19.0003 12.0003C19.0003 14.3478 18.9134 16.208 18.7398 17.581C18.5659 18.9542 18.3566 20.1324 18.1118 21.1158H17.0445ZM12.0003 18.0003C13.6669 18.0003 15.0836 17.4169 16.2503 16.2503C17.4169 15.0836 18.0003 13.6669 18.0003 12.0003C18.0003 10.3336 17.4169 8.91693 16.2503 7.75027C15.0836 6.5836 13.6669 6.00027 12.0003 6.00027C10.3336 6.00027 8.91693 6.5836 7.75027 7.75027C6.5836 8.91693 6.00027 10.3336 6.00027 12.0003C6.00027 13.6669 6.5836 15.0836 7.75027 16.2503C8.91693 17.4169 10.3336 18.0003 12.0003 18.0003Z" fill="#E3E3E3"/>
</svg>
