<svg width="24" height="24" viewBox="0 0 24 24" fill="none" xmlns="http://www.w3.org/2000/svg">
<path d="M12 20.5003C10.0603 20.5003 8.40875 19.8316 7.04525 18.4943C5.68175 17.1571 5 15.5292 5 13.6105C5 12.6947 5.18492 11.8185 5.55475 10.982C5.92458 10.1455 6.42042 9.39902 7.04225 8.74252L12 3.88477L16.9578 8.74252C17.5796 9.39902 18.0754 10.1458 18.4453 10.9828C18.8151 11.8198 19 12.6968 19 13.614C19 15.5357 18.3183 17.1638 16.9548 18.4983C15.5913 19.8329 13.9397 20.5003 12 20.5003ZM12 19.5003C13.6667 19.5003 15.0833 18.9326 16.25 17.7973C17.4167 16.6621 18 15.268 18 13.615C18 12.8303 17.85 12.0832 17.55 11.3735C17.25 10.664 16.8167 10.0421 16.25 9.50776L12 5.30027L7.75 9.50776C7.18333 10.0421 6.75 10.664 6.45 11.3735C6.15 12.0832 6 12.8303 6 13.615C6 15.268 6.58333 16.6621 7.75 17.7973C8.91667 18.9326 10.3333 19.5003 12 19.5003Z" fill="#E3E3E3"/>
</svg>
