<svg width="24" height="24" viewBox="0 0 24 24" fill="none" xmlns="http://www.w3.org/2000/svg">
<path d="M4.71871 11.4385C4.59688 11.4948 4.47088 11.5028 4.34071 11.4625C4.21071 11.4222 4.11746 11.3411 4.06096 11.2192L1.56096 6.21923C1.50463 6.0974 1.49663 5.9714 1.53696 5.84123C1.5773 5.71123 1.65838 5.61798 1.78021 5.56148C1.90205 5.50515 2.02805 5.49715 2.15821 5.53748C2.28821 5.57782 2.38146 5.6589 2.43796 5.78073L4.93796 10.7807C4.99429 10.9026 5.0023 11.0286 4.96196 11.1587C4.92163 11.2887 4.84055 11.382 4.71871 11.4385ZM8.21871 18.4385C8.09688 18.5077 7.97088 18.5188 7.84071 18.472C7.71071 18.4253 7.61105 18.3411 7.54171 18.2192L5.54171 14.2192C5.48538 14.0974 5.48063 13.9714 5.52746 13.8412C5.57413 13.7112 5.65838 13.6116 5.78021 13.5422C5.90205 13.4859 6.02805 13.4812 6.15821 13.528C6.28821 13.5747 6.38146 13.6589 6.43796 13.7807L8.45721 17.7807C8.51355 17.9026 8.5183 18.0253 8.47146 18.149C8.4248 18.2727 8.34055 18.3692 8.21871 18.4385ZM10.2687 13.4385C10.1469 13.4948 10.0177 13.5028 9.88121 13.4625C9.74471 13.4222 9.64821 13.3411 9.59171 13.2192L6.09171 6.21923C6.03538 6.0974 6.02738 5.9714 6.06771 5.84123C6.10805 5.71123 6.18913 5.61798 6.31096 5.56148C6.4328 5.49232 6.56196 5.48115 6.69846 5.52798C6.83496 5.57465 6.93146 5.6589 6.98796 5.78073L10.488 12.7807C10.5443 12.9026 10.5523 13.0286 10.512 13.1587C10.4716 13.2887 10.3905 13.382 10.2687 13.4385ZM12.4187 8.43848C12.2969 8.50765 12.1709 8.52207 12.0407 8.48173C11.9107 8.4414 11.8175 8.36032 11.761 8.23848L10.7667 6.21923C10.7104 6.0974 10.7024 5.96823 10.7427 5.83173C10.783 5.69523 10.8641 5.59873 10.986 5.54223C11.1078 5.4859 11.236 5.48115 11.3707 5.52798C11.5052 5.57465 11.6007 5.6589 11.6572 5.78073L12.6572 7.78073C12.7135 7.90257 12.7183 8.02532 12.6715 8.14898C12.6248 8.27265 12.5405 8.36915 12.4187 8.43848ZM13.0187 18.4327C12.8969 18.5019 12.7677 18.5141 12.6312 18.4692C12.4947 18.4244 12.3982 18.3411 12.3417 18.2192L11.3417 16.2192C11.2854 16.0974 11.2806 15.9682 11.3275 15.8317C11.3741 15.6952 11.4584 15.5987 11.5802 15.5422C11.702 15.4859 11.8248 15.4812 11.9485 15.528C12.0721 15.5747 12.1686 15.6589 12.238 15.7807L13.2572 17.7615C13.3135 17.8833 13.3183 18.0083 13.2715 18.1365C13.2248 18.2647 13.1405 18.3634 13.0187 18.4327ZM17.6687 18.4327C17.5469 18.5019 17.4209 18.5141 17.2907 18.4692C17.1607 18.4244 17.0675 18.3411 17.011 18.2192L13.511 11.2192C13.4546 11.0974 13.4466 10.9714 13.487 10.8412C13.5273 10.7112 13.6084 10.6116 13.7302 10.5422C13.852 10.4859 13.9812 10.4812 14.1177 10.528C14.2542 10.5747 14.3507 10.6589 14.4072 10.7807L17.9072 17.7615C17.9635 17.8833 17.9683 18.0083 17.9215 18.1365C17.8748 18.2647 17.7905 18.3634 17.6687 18.4327ZM19.2187 12.4385C19.0969 12.5077 18.9709 12.5188 18.8407 12.472C18.7107 12.4253 18.611 12.3411 18.5417 12.2192L15.5417 6.21923C15.4854 6.0974 15.4806 5.96823 15.5275 5.83173C15.5741 5.69523 15.6584 5.59873 15.7802 5.54223C15.902 5.4859 16.028 5.48115 16.1582 5.52798C16.2882 5.57465 16.3815 5.6589 16.438 5.78073L19.438 11.7807C19.4943 11.9026 19.5023 12.0286 19.462 12.1587C19.4216 12.2887 19.3405 12.382 19.2187 12.4385ZM22.2187 18.4385C22.0969 18.5077 21.9709 18.5188 21.8407 18.472C21.7107 18.4253 21.611 18.3411 21.5417 18.2192L20.0417 15.2192C19.9854 15.0974 19.9806 14.9682 20.0275 14.8317C20.0741 14.6952 20.1584 14.5987 20.2802 14.5422C20.402 14.4859 20.528 14.4812 20.6582 14.528C20.7882 14.5747 20.8815 14.6589 20.938 14.7807L22.438 17.7807C22.4943 17.9026 22.5023 18.0286 22.462 18.1587C22.4216 18.2887 22.3405 18.382 22.2187 18.4385Z" fill="#E3E3E3"/>
</svg>
