<svg width="24" height="24" viewBox="0 0 24 24" fill="none" xmlns="http://www.w3.org/2000/svg">
<path d="M8.21871 18.458C8.09688 18.5272 7.96771 18.5352 7.83121 18.482C7.69471 18.4289 7.59821 18.3414 7.54171 18.2195L6.04171 15.2195C5.98538 15.0977 5.97738 14.9685 6.01771 14.832C6.05804 14.6955 6.13913 14.599 6.26096 14.5425C6.3828 14.4862 6.51196 14.4814 6.64846 14.5283C6.78496 14.5749 6.88146 14.6592 6.93796 14.781L8.45721 17.7618C8.52638 17.8836 8.53438 18.0128 8.48121 18.1493C8.42805 18.2858 8.34055 18.3887 8.21871 18.458ZM17.2187 18.458C17.0969 18.5272 16.9677 18.5352 16.8312 18.482C16.6947 18.4289 16.5982 18.3414 16.5417 18.2195L12.0417 9.21953C11.9854 9.0977 11.9774 8.96853 12.0177 8.83203C12.058 8.69553 12.1391 8.59903 12.261 8.54253C12.3828 8.4862 12.512 8.48145 12.6485 8.52828C12.785 8.57495 12.8815 8.6592 12.938 8.78103L17.4572 17.7618C17.5264 17.8836 17.5344 18.0128 17.4812 18.1493C17.428 18.2858 17.3405 18.3887 17.2187 18.458ZM12.7502 18.731C12.5434 18.731 12.3697 18.661 12.2292 18.521C12.0889 18.3812 12.0187 18.2079 12.0187 18.001C12.0187 17.7942 12.0887 17.6205 12.2287 17.48C12.3685 17.3397 12.5419 17.2695 12.7487 17.2695C12.9555 17.2695 13.1292 17.3395 13.2697 17.4795C13.41 17.6194 13.4802 17.7927 13.4802 17.9995C13.4802 18.2064 13.4102 18.38 13.2702 18.5205C13.1304 18.6609 12.957 18.731 12.7502 18.731ZM22.2187 18.458C22.0969 18.5144 21.9677 18.5191 21.8312 18.4723C21.6947 18.4256 21.5982 18.3414 21.5417 18.2195L21.0417 17.2195C20.9854 17.0977 20.9774 16.9685 21.0177 16.832C21.058 16.6955 21.1391 16.599 21.261 16.5425C21.3828 16.4862 21.512 16.4814 21.6485 16.5283C21.785 16.5749 21.8815 16.6592 21.938 16.781L22.438 17.781C22.5071 17.9029 22.519 18.0293 22.4735 18.1603C22.4278 18.2911 22.3429 18.3904 22.2187 18.458ZM11.2187 15.458C11.0969 15.5144 10.9709 15.5191 10.8407 15.4723C10.7107 15.4256 10.6175 15.3414 10.561 15.2195L6.06096 6.21953C6.00463 6.0977 5.99663 5.9717 6.03696 5.84153C6.0773 5.71153 6.15838 5.61828 6.28021 5.56178C6.40205 5.50545 6.52805 5.49745 6.65821 5.53778C6.78821 5.57811 6.88146 5.6592 6.93796 5.78103L11.438 14.781C11.5071 14.9029 11.519 15.0293 11.4735 15.1603C11.4278 15.2911 11.3429 15.3904 11.2187 15.458ZM20.0002 14.731C19.7934 14.731 19.6197 14.661 19.4792 14.521C19.3389 14.3812 19.2687 14.2079 19.2687 14.001C19.2687 13.7942 19.3387 13.6205 19.4787 13.48C19.6185 13.3397 19.7919 13.2695 19.9987 13.2695C20.2055 13.2695 20.3792 13.3395 20.5197 13.4795C20.66 13.6194 20.7302 13.7927 20.7302 13.9995C20.7302 14.2064 20.6602 14.38 20.5202 14.5205C20.3804 14.6609 20.207 14.731 20.0002 14.731ZM5.00021 12.731C4.79338 12.731 4.61971 12.661 4.47921 12.521C4.33888 12.3812 4.26871 12.2079 4.26871 12.001C4.26871 11.7942 4.33871 11.6205 4.47871 11.48C4.61855 11.3397 4.79188 11.2695 4.99871 11.2695C5.20555 11.2695 5.37921 11.3395 5.51971 11.4795C5.66005 11.6194 5.73021 11.7927 5.73021 11.9995C5.73021 12.2064 5.66021 12.38 5.52021 12.5205C5.38038 12.6609 5.20705 12.731 5.00021 12.731ZM18.7187 11.458C18.5969 11.5144 18.4677 11.5191 18.3312 11.4723C18.1947 11.4256 18.0982 11.3414 18.0417 11.2195L15.5417 6.21953C15.4854 6.0977 15.4774 5.96853 15.5177 5.83203C15.558 5.69553 15.6391 5.59903 15.761 5.54253C15.8828 5.4862 16.012 5.48145 16.1485 5.52828C16.285 5.57495 16.3815 5.6592 16.438 5.78103L18.938 10.781C19.0071 10.9029 19.019 11.0293 18.9735 11.1603C18.9278 11.2911 18.8429 11.3904 18.7187 11.458ZM3.71871 9.45803C3.59688 9.51436 3.47088 9.51911 3.34071 9.47228C3.21071 9.42561 3.11746 9.34136 3.06096 9.21953L1.56096 6.21953C1.50463 6.0977 1.49663 5.9717 1.53696 5.84153C1.5773 5.71153 1.65838 5.61828 1.78021 5.56178C1.90205 5.50545 2.02805 5.49745 2.15821 5.53778C2.28821 5.57811 2.38146 5.6592 2.43796 5.78103L3.93796 8.78103C4.00713 8.90286 4.01896 9.02928 3.97346 9.16028C3.9278 9.29111 3.84288 9.39036 3.71871 9.45803ZM11.2502 6.73103C11.0434 6.73103 10.8697 6.66103 10.7292 6.52103C10.5889 6.3812 10.5187 6.20786 10.5187 6.00103C10.5187 5.7942 10.5887 5.62053 10.7287 5.48003C10.8685 5.3397 11.0419 5.26953 11.2487 5.26953C11.4555 5.26953 11.6292 5.33953 11.7697 5.47953C11.91 5.61936 11.9802 5.7927 11.9802 5.99953C11.9802 6.20636 11.9102 6.38003 11.7702 6.52053C11.6304 6.66086 11.457 6.73103 11.2502 6.73103Z" fill="#E3E3E3"/>
</svg>
