<svg width="24" height="24" viewBox="0 0 24 24" fill="none" xmlns="http://www.w3.org/2000/svg">
<path d="M13.06 21.923C12.7828 21.923 12.5465 21.8294 12.351 21.6423C12.1555 21.4549 12.0577 21.2235 12.0577 20.948C12.0577 20.8205 12.0792 20.6982 12.122 20.5813C12.165 20.4643 12.2378 20.3598 12.3403 20.268L13.0577 19.5963L13.775 20.268C13.8775 20.3598 13.9502 20.4652 13.9932 20.584C14.0363 20.7028 14.0577 20.827 14.0577 20.9565C14.0577 21.2265 13.9607 21.4551 13.7667 21.6423C13.5728 21.8294 13.3372 21.923 13.06 21.923ZM9.60775 20.5193L8.9615 19.873L11.5078 17.327L12.1538 17.973L9.60775 20.5193ZM16.0577 19.0193L14.9615 17.923L16.0577 16.827L17.1538 17.923L16.0577 19.0193ZM7.05775 19.0193L5.9615 17.923L7.05775 16.827L8.15375 17.923L7.05775 19.0193ZM7.5 15.5C6.1115 15.5 4.93108 15.0138 3.95875 14.0413C2.98625 13.0689 2.5 11.8885 2.5 10.5C2.5 9.20633 2.93592 8.08775 3.80775 7.14425C4.67958 6.20058 5.77125 5.65633 7.08275 5.5115C7.57875 4.5735 8.25692 3.83708 9.11725 3.30225C9.97758 2.76742 10.936 2.5 11.9925 2.5C13.4333 2.5 14.6695 2.976 15.701 3.928C16.7323 4.87983 17.3327 6.066 17.502 7.4865C18.7288 7.56083 19.7019 7.98775 20.4212 8.76725C21.1404 9.54675 21.5 10.4596 21.5 11.5058C21.5 12.6109 21.1111 13.5529 20.3333 14.3317C19.5556 15.1106 18.6112 15.5 17.5 15.5H7.5ZM7.5 14.5H17.5C18.3282 14.5 19.0352 14.2071 19.6213 13.6213C20.2071 13.0353 20.5 12.3282 20.5 11.5C20.5 10.6718 20.2071 9.96475 19.6213 9.37875C19.0352 8.79292 18.3282 8.5 17.5 8.5H16.5V8C16.5 6.7625 16.0591 5.70317 15.1773 4.822C14.2954 3.94067 13.2353 3.5 11.997 3.5C11.0965 3.5 10.2762 3.74442 9.536 4.23325C8.79567 4.72225 8.23817 5.38042 7.8635 6.20775L7.74525 6.5H7.45C6.36233 6.53817 5.43208 6.94292 4.65925 7.71425C3.88642 8.48575 3.5 9.41433 3.5 10.5C3.5 11.6048 3.8905 12.5477 4.6715 13.3285C5.45233 14.1095 6.39517 14.5 7.5 14.5Z" fill="#E3E3E3"/>
</svg>
