<svg width="24" height="24" viewBox="0 0 24 24" fill="none" xmlns="http://www.w3.org/2000/svg">
<path d="M11.5006 5.42259V2.03809H12.5006V5.42259H11.5006ZM16.9968 7.71109L16.3141 7.02834L18.6718 4.57659L19.3986 5.30909L16.9968 7.71109ZM18.5776 12.4996V11.4996H21.9621V12.4996H18.5776ZM11.5006 21.9611V18.5958H12.5006V21.9611H11.5006ZM7.04281 7.68034L4.57756 5.32834L5.32931 4.62084L7.73131 7.00334L7.04281 7.68034ZM18.6661 19.4226L16.3141 16.9708L16.9911 16.3131L19.3793 18.6591L18.6661 19.4226ZM2.03906 12.4996V11.4996H5.42356V12.4996H2.03906ZM5.31006 19.4226L4.62181 18.6708L6.97931 16.3131L7.33906 16.6611L7.71781 17.0151L5.31006 19.4226ZM12.0051 16.9996C10.6174 16.9996 9.4364 16.5139 8.46206 15.5426C7.48773 14.5713 7.00056 13.3918 7.00056 12.0041C7.00056 10.6164 7.48623 9.43542 8.45756 8.46109C9.4289 7.48675 10.6084 6.99959 11.9961 6.99959C13.3837 6.99959 14.5647 7.48525 15.5391 8.45659C16.5134 9.42792 17.0006 10.6074 17.0006 11.9951C17.0006 13.3828 16.5149 14.5638 15.5436 15.5381C14.5722 16.5124 13.3927 16.9996 12.0051 16.9996ZM12.0006 15.9996C13.1006 15.9996 14.0422 15.6079 14.8256 14.8246C15.6089 14.0413 16.0006 13.0996 16.0006 11.9996C16.0006 10.8996 15.6089 9.95792 14.8256 9.17459C14.0422 8.39125 13.1006 7.99959 12.0006 7.99959C10.9006 7.99959 9.9589 8.39125 9.17556 9.17459C8.39223 9.95792 8.00056 10.8996 8.00056 11.9996C8.00056 13.0996 8.39223 14.0413 9.17556 14.8246C9.9589 15.6079 10.9006 15.9996 12.0006 15.9996Z" fill="#E3E3E3"/>
</svg>
