<svg width="24" height="24" viewBox="0 0 24 24" fill="none" xmlns="http://www.w3.org/2000/svg">
<path d="M6.5 19C5.2525 19 4.19067 18.5648 3.3145 17.6943C2.43817 16.8238 2 15.7648 2 14.5173C2 13.3711 2.39167 12.3538 3.175 11.4655C3.95833 10.577 4.93208 10.1 6.09625 10.0345C6.32058 8.57817 6.99042 7.375 8.10575 6.425C9.22108 5.475 10.5192 5 12 5C13.668 5 15.085 5.583 16.251 6.749C17.417 7.915 18 9.332 18 11V12H18.6155C19.5732 12.0308 20.3767 12.3824 21.026 13.0548C21.6753 13.7273 22 14.5423 22 15.5C22 16.4808 21.6618 17.3093 20.9855 17.9855C20.3093 18.6618 19.4808 19 18.5 19H6.5ZM6.5 18H18.5C19.2 18 19.7917 17.7583 20.275 17.275C20.7583 16.7917 21 16.2 21 15.5C21 14.8 20.7583 14.2083 20.275 13.725C19.7917 13.2417 19.2 13 18.5 13H17V11C17 9.61667 16.5125 8.4375 15.5375 7.4625C14.5625 6.4875 13.3833 6 12 6C10.6167 6 9.4375 6.4875 8.4625 7.4625C7.4875 8.4375 7 9.61667 7 11H6.5C5.53333 11 4.70833 11.3417 4.025 12.025C3.34167 12.7083 3 13.5333 3 14.5C3 15.4667 3.34167 16.2917 4.025 16.975C4.70833 17.6583 5.53333 18 6.5 18Z" fill="#E3E3E3"/>
</svg>
