<svg width="24" height="24" viewBox="0 0 24 24" fill="none" xmlns="http://www.w3.org/2000/svg">
<path d="M12 21C10.8858 21 9.94067 20.6118 9.1645 19.8355C8.38817 19.0593 8 18.1142 8 17C8 16.277 8.17817 15.6113 8.5345 15.003C8.891 14.3947 9.3795 13.9065 10 13.5385V5C10 4.43583 10.1923 3.9615 10.577 3.577C10.9615 3.19233 11.4358 3 12 3C12.5642 3 13.0385 3.19233 13.423 3.577C13.8077 3.9615 14 4.43583 14 5V13.5385C14.6205 13.9065 15.109 14.3947 15.4655 15.003C15.8218 15.6113 16 16.277 16 17C16 18.1142 15.6118 19.0593 14.8355 19.8355C14.0593 20.6118 13.1142 21 12 21ZM11 11.3845H13V9.8845H12V9.1155H13V6.8845H12V6.1155H13V5C13 4.71667 12.9042 4.47917 12.7125 4.2875C12.5208 4.09583 12.2833 4 12 4C11.7167 4 11.4792 4.09583 11.2875 4.2875C11.0958 4.47917 11 4.71667 11 5V11.3845Z" fill="#E3E3E3"/>
</svg>
