<svg width="24" height="24" viewBox="0 0 24 24" fill="none" xmlns="http://www.w3.org/2000/svg">
<path d="M2.5 20.4809V19.4616C3.05633 19.3591 3.4695 19.1765 3.7395 18.9136C4.00933 18.6508 4.54617 18.5194 5.35 18.5194C6.218 18.5194 6.81483 18.6861 7.1405 19.0194C7.466 19.3527 7.9775 19.5194 8.675 19.5194C9.3725 19.5194 9.884 19.3527 10.2095 19.0194C10.5352 18.6861 11.132 18.5194 12 18.5194C12.8475 18.5194 13.4485 18.6861 13.803 19.0194C14.1573 19.3527 14.673 19.5194 15.35 19.5194C16.0475 19.5194 16.559 19.3527 16.8845 19.0194C17.2102 18.6861 17.807 18.5194 18.675 18.5194C19.4788 18.5194 20.0115 18.6508 20.273 18.9136C20.5347 19.1765 20.9437 19.3591 21.5 19.4616V20.4809C20.8667 20.4041 20.3917 20.2246 20.075 19.9424C19.7583 19.6604 19.2917 19.5194 18.675 19.5194C17.9942 19.5194 17.4827 19.6861 17.1405 20.0194C16.7982 20.3527 16.2013 20.5194 15.35 20.5194C14.4987 20.5194 13.8977 20.3527 13.547 20.0194C13.1965 19.6861 12.6808 19.5194 12 19.5194C11.3025 19.5194 10.791 19.6861 10.4655 20.0194C10.1398 20.3527 9.543 20.5194 8.675 20.5194C7.807 20.5194 7.21017 20.3527 6.8845 20.0194C6.559 19.6861 6.0475 19.5194 5.35 19.5194C4.73333 19.5194 4.26667 19.6604 3.95 19.9424C3.63333 20.2246 3.15 20.4041 2.5 20.4809ZM8.675 17.0001C7.84033 17.0001 7.24675 16.8335 6.89425 16.5001C6.54175 16.1668 6.027 16.0001 5.35 16.0001C4.76667 16.0001 4.30317 16.1411 3.9595 16.4231C3.616 16.7053 3.1295 16.8848 2.5 16.9616V15.9424C3.05633 15.8399 3.4685 15.6572 3.7365 15.3944C4.0045 15.1315 4.54042 15.0001 5.34425 15.0001C5.63658 15.0001 5.90967 15.0364 6.1635 15.1089C6.41733 15.1812 6.759 15.3411 7.1885 15.5886L5.7385 10.1271L4.2095 12.0424L3.423 11.4271L10.0827 3.19238L19.973 6.97713L19.6135 7.90963L17.3405 7.02138L19.5 15.1231C19.8487 15.1668 20.1772 15.2951 20.4855 15.5079C20.7938 15.7207 21.132 15.8656 21.5 15.9424V16.9424C20.8705 16.8617 20.3955 16.6845 20.075 16.4106C19.7545 16.137 19.2878 16.0001 18.675 16.0001C17.9775 16.0001 17.466 16.1668 17.1405 16.5001C16.8148 16.8335 16.218 17.0001 15.35 17.0001C14.5025 17.0001 13.9015 16.8335 13.547 16.5001C13.1927 16.1668 12.677 16.0001 12 16.0001C11.3025 16.0001 10.791 16.1668 10.4655 16.5001C10.1398 16.8335 9.543 17.0001 8.675 17.0001ZM8.675 16.0001C9.23917 16.0001 9.6715 15.8803 9.972 15.6406C10.2727 15.4008 10.6935 15.2142 11.2345 15.0809L10.175 11.2001L14.05 10.1751L15.5845 15.9751C16.1525 15.929 16.5865 15.7652 16.8865 15.4839C17.1865 15.2024 17.6962 15.0431 18.4155 15.0059L16.1693 6.57713L10.4058 4.40013L6.51925 9.15788L8.3405 15.9694C8.40717 15.9861 8.46833 15.9953 8.524 15.9971C8.57983 15.9991 8.63017 16.0001 8.675 16.0001Z" fill="#E3E3E3"/>
</svg>
