<svg width="24" height="24" viewBox="0 0 24 24" fill="none" xmlns="http://www.w3.org/2000/svg">
<path d="M18 18.6155C17.8257 18.6155 17.6795 18.5565 17.5615 18.4385C17.4435 18.3205 17.3845 18.1743 17.3845 18C17.3845 17.8257 17.4435 17.6795 17.5615 17.5615C17.6795 17.4435 17.8257 17.3845 18 17.3845C18.1743 17.3845 18.3205 17.4435 18.4385 17.5615C18.5565 17.6795 18.6155 17.8257 18.6155 18C18.6155 18.1743 18.5565 18.3205 18.4385 18.4385C18.3205 18.5565 18.1743 18.6155 18 18.6155ZM7 21.6155C6.82567 21.6155 6.6795 21.5565 6.5615 21.4385C6.4435 21.3205 6.3845 21.1743 6.3845 21C6.3845 20.8257 6.4435 20.6795 6.5615 20.5615C6.6795 20.4435 6.82567 20.3845 7 20.3845C7.17433 20.3845 7.3205 20.4435 7.4385 20.5615C7.5565 20.6795 7.6155 20.8257 7.6155 21C7.6155 21.1743 7.5565 21.3205 7.4385 21.4385C7.3205 21.5565 7.17433 21.6155 7 21.6155ZM6 18.5C5.85833 18.5 5.73958 18.452 5.64375 18.356C5.54792 18.26 5.5 18.1411 5.5 17.9992C5.5 17.8574 5.54792 17.7387 5.64375 17.6432C5.73958 17.5477 5.85833 17.5 6 17.5H15C15.1417 17.5 15.2604 17.548 15.3562 17.644C15.4521 17.74 15.5 17.8589 15.5 18.0008C15.5 18.1426 15.4521 18.2613 15.3562 18.3568C15.2604 18.4523 15.1417 18.5 15 18.5H6ZM10 21.5C9.85833 21.5 9.73958 21.452 9.64375 21.356C9.54792 21.26 9.5 21.1411 9.5 20.9993C9.5 20.8574 9.54792 20.7388 9.64375 20.6432C9.73958 20.5478 9.85833 20.5 10 20.5H17C17.1417 20.5 17.2604 20.548 17.3562 20.644C17.4521 20.74 17.5 20.8589 17.5 21.0008C17.5 21.1426 17.4521 21.2613 17.3562 21.3568C17.2604 21.4523 17.1417 21.5 17 21.5H10ZM7.5 15.5C6.1115 15.5 4.93108 15.0138 3.95875 14.0413C2.98625 13.0689 2.5 11.8885 2.5 10.5C2.5 9.20633 2.93592 8.08775 3.80775 7.14425C4.67958 6.20058 5.77125 5.65633 7.08275 5.5115C7.57875 4.5735 8.25692 3.83708 9.11725 3.30225C9.97758 2.76742 10.936 2.5 11.9925 2.5C13.4333 2.5 14.6695 2.976 15.701 3.928C16.7323 4.87983 17.3327 6.066 17.502 7.4865C18.7288 7.56083 19.7019 7.98775 20.4212 8.76725C21.1404 9.54675 21.5 10.4596 21.5 11.5058C21.5 12.6109 21.1111 13.5529 20.3333 14.3317C19.5556 15.1106 18.6112 15.5 17.5 15.5H7.5ZM7.5 14.5H17.5C18.3282 14.5 19.0352 14.2071 19.6213 13.6213C20.2071 13.0353 20.5 12.3282 20.5 11.5C20.5 10.6718 20.2071 9.96475 19.6213 9.37875C19.0352 8.79292 18.3282 8.5 17.5 8.5H16.5V8C16.5 6.7625 16.0591 5.70317 15.1773 4.822C14.2954 3.94067 13.2353 3.5 11.997 3.5C11.0965 3.5 10.2762 3.74442 9.536 4.23325C8.79567 4.72225 8.23817 5.38042 7.8635 6.20775L7.74525 6.5H7.45C6.36233 6.53817 5.43208 6.94292 4.65925 7.71425C3.88642 8.48575 3.5 9.41433 3.5 10.5C3.5 11.6048 3.8905 12.5477 4.6715 13.3285C5.45233 14.1095 6.39517 14.5 7.5 14.5Z" fill="#E3E3E3"/>
</svg>
