<svg width="24" height="24" viewBox="0 0 24 24" fill="none" xmlns="http://www.w3.org/2000/svg">
<path d="M14.113 17.1154C14.3902 17.1154 14.6265 17.0184 14.822 16.8244C15.0177 16.6302 15.1155 16.3946 15.1155 16.1176C15.1155 15.8405 15.0185 15.6041 14.8245 15.4086C14.6303 15.2131 14.3948 15.1154 14.1178 15.1154C13.8406 15.1154 13.6042 15.2124 13.4087 15.4064C13.2132 15.6004 13.1155 15.8359 13.1155 16.1129C13.1155 16.39 13.2125 16.6264 13.4065 16.8219C13.6005 17.0175 13.836 17.1154 14.113 17.1154ZM9.45 17.2384L15.2385 11.4499L14.55 10.7421L8.74225 16.5499L9.45 17.2384ZM9.88225 12.8844C10.1594 12.8844 10.3958 12.7874 10.5912 12.5934C10.7867 12.3994 10.8845 12.1639 10.8845 11.8869C10.8845 11.6097 10.7875 11.3734 10.5935 11.1779C10.3995 10.9822 10.164 10.8844 9.887 10.8844C9.60983 10.8844 9.3735 10.9814 9.178 11.1754C8.98233 11.3695 8.8845 11.6051 8.8845 11.8821C8.8845 12.1593 8.9815 12.3956 9.1755 12.5911C9.36967 12.7866 9.60525 12.8844 9.88225 12.8844ZM11.9965 20.9999C9.9975 20.9999 8.33167 20.312 6.999 18.9364C5.66633 17.5609 5 15.8487 5 13.7999C5 12.364 5.57917 10.7759 6.7375 9.03537C7.89583 7.29503 9.65 5.38578 12 3.30762C14.35 5.38578 16.1042 7.29503 17.2625 9.03537C18.4208 10.7759 19 12.364 19 13.7999C19 15.8487 18.3325 17.5609 16.9975 18.9364C15.6623 20.312 13.9953 20.9999 11.9965 20.9999ZM12 19.9999C13.7333 19.9999 15.1667 19.4124 16.3 18.2374C17.4333 17.0624 18 15.5832 18 13.7999C18 12.5832 17.4958 11.2082 16.4875 9.67487C15.4792 8.14153 13.9833 6.46653 12 4.64987C10.0167 6.46653 8.52083 8.14153 7.5125 9.67487C6.50417 11.2082 6 12.5832 6 13.7999C6 15.5832 6.56667 17.0624 7.7 18.2374C8.83333 19.4124 10.2667 19.9999 12 19.9999Z" fill="#E3E3E3"/>
</svg>
