<svg width="24" height="24" viewBox="0 0 24 24" fill="none" xmlns="http://www.w3.org/2000/svg">
<path d="M4 18.5C3.85833 18.5 3.73958 18.452 3.64375 18.356C3.54792 18.26 3.5 18.1411 3.5 17.9993C3.5 17.8574 3.54792 17.7387 3.64375 17.6432C3.73958 17.5477 3.85833 17.5 4 17.5H14C14.1417 17.5 14.2604 17.548 14.3562 17.644C14.4521 17.74 14.5 17.8589 14.5 18.0008C14.5 18.1426 14.4521 18.2613 14.3562 18.3568C14.2604 18.4523 14.1417 18.5 14 18.5H4ZM18 18.5C17.8583 18.5 17.7396 18.452 17.6438 18.356C17.5479 18.26 17.5 18.1411 17.5 17.9993C17.5 17.8574 17.5479 17.7387 17.6438 17.6432C17.7396 17.5477 17.8583 17.5 18 17.5H20C20.1417 17.5 20.2604 17.548 20.3563 17.644C20.4521 17.74 20.5 17.8589 20.5 18.0008C20.5 18.1426 20.4521 18.2613 20.3563 18.3568C20.2604 18.4523 20.1417 18.5 20 18.5H18ZM4 14.5C3.85833 14.5 3.73958 14.452 3.64375 14.356C3.54792 14.26 3.5 14.1411 3.5 13.9993C3.5 13.8574 3.54792 13.7388 3.64375 13.6433C3.73958 13.5478 3.85833 13.5 4 13.5H6C6.14167 13.5 6.26042 13.548 6.35625 13.644C6.45208 13.74 6.5 13.8589 6.5 14.0008C6.5 14.1426 6.45208 14.2612 6.35625 14.3567C6.26042 14.4522 6.14167 14.5 6 14.5H4ZM10 14.5C9.85833 14.5 9.73958 14.452 9.64375 14.356C9.54792 14.26 9.5 14.1411 9.5 13.9993C9.5 13.8574 9.54792 13.7388 9.64375 13.6433C9.73958 13.5478 9.85833 13.5 10 13.5H20C20.1417 13.5 20.2604 13.548 20.3563 13.644C20.4521 13.74 20.5 13.8589 20.5 14.0008C20.5 14.1426 20.4521 14.2612 20.3563 14.3567C20.2604 14.4522 20.1417 14.5 20 14.5H10ZM4 10.5C3.85833 10.5 3.73958 10.452 3.64375 10.356C3.54792 10.26 3.5 10.1411 3.5 9.99925C3.5 9.85742 3.54792 9.73875 3.64375 9.64325C3.73958 9.54775 3.85833 9.5 4 9.5H15C15.1417 9.5 15.2604 9.548 15.3562 9.644C15.4521 9.74 15.5 9.85892 15.5 10.0008C15.5 10.1426 15.4521 10.2613 15.3562 10.3568C15.2604 10.4523 15.1417 10.5 15 10.5H4ZM19 10.5C18.8583 10.5 18.7396 10.452 18.6438 10.356C18.5479 10.26 18.5 10.1411 18.5 9.99925C18.5 9.85742 18.5479 9.73875 18.6438 9.64325C18.7396 9.54775 18.8583 9.5 19 9.5H20C20.1417 9.5 20.2604 9.548 20.3563 9.644C20.4521 9.74 20.5 9.85892 20.5 10.0008C20.5 10.1426 20.4521 10.2613 20.3563 10.3568C20.2604 10.4523 20.1417 10.5 20 10.5H19ZM4 6.5C3.85833 6.5 3.73958 6.452 3.64375 6.356C3.54792 6.26 3.5 6.14108 3.5 5.99925C3.5 5.85742 3.54792 5.73875 3.64375 5.64325C3.73958 5.54775 3.85833 5.5 4 5.5H9C9.14167 5.5 9.26042 5.548 9.35625 5.644C9.45208 5.74 9.5 5.85892 9.5 6.00075C9.5 6.14258 9.45208 6.26125 9.35625 6.35675C9.26042 6.45225 9.14167 6.5 9 6.5H4ZM13 6.5C12.8583 6.5 12.7396 6.452 12.6438 6.356C12.5479 6.26 12.5 6.14108 12.5 5.99925C12.5 5.85742 12.5479 5.73875 12.6438 5.64325C12.7396 5.54775 12.8583 5.5 13 5.5H20C20.1417 5.5 20.2604 5.548 20.3563 5.644C20.4521 5.74 20.5 5.85892 20.5 6.00075C20.5 6.14258 20.4521 6.26125 20.3563 6.35675C20.2604 6.45225 20.1417 6.5 20 6.5H13Z" fill="#E3E3E3"/>
</svg>
