<svg width="24" height="24" viewBox="0 0 24 24" fill="none" xmlns="http://www.w3.org/2000/svg">
<path d="M14.7111 7.59653L12.4226 5.30803L14.7111 3.01953L16.9996 5.30803L14.7111 7.59653ZM19.7111 10.5965L18.4226 9.30803L19.7111 8.01953L20.9996 9.30803L19.7111 10.5965ZM12.0746 21.0003C10.8156 21.0003 9.63453 20.7624 8.53136 20.2868C7.42819 19.8111 6.46411 19.1608 5.63911 18.3358C4.81411 17.5108 4.16378 16.5467 3.68811 15.4435C3.21244 14.3404 2.97461 13.1593 2.97461 11.9003C2.97461 9.95411 3.53486 8.19928 4.65536 6.63578C5.77586 5.07228 7.25411 3.98228 9.09011 3.36578C9.02078 4.92595 9.25986 6.4262 9.80736 7.86653C10.3547 9.30703 11.1816 10.5804 12.2881 11.6868C13.3944 12.7933 14.6679 13.6202 16.1084 14.1675C17.5487 14.715 19.0489 14.9541 20.6091 14.8848C19.9964 16.7208 18.9074 18.199 17.3419 19.3195C15.7765 20.44 14.0208 21.0003 12.0746 21.0003ZM12.0746 20.0003C13.5413 20.0003 14.8996 19.6336 16.1496 18.9003C17.3996 18.1669 18.3829 17.1586 19.0996 15.8753C17.6663 15.7419 16.3079 15.3763 15.0246 14.7783C13.7413 14.1801 12.5913 13.3727 11.5746 12.356C10.5579 11.3394 9.74961 10.1926 9.14961 8.91578C8.54961 7.63878 8.19128 6.28361 8.07461 4.85028C6.79128 5.56695 5.78711 6.55445 5.06211 7.81278C4.33711 9.07111 3.97461 10.4336 3.97461 11.9003C3.97461 14.1503 4.76211 16.0628 6.33711 17.6378C7.91211 19.2128 9.82461 20.0003 12.0746 20.0003Z" fill="#E3E3E3"/>
</svg>
