<svg width="24" height="24" viewBox="0 0 24 24" fill="none" xmlns="http://www.w3.org/2000/svg">
<path d="M11.4992 5.42259V2.03809H12.4992V5.42259H11.4992ZM16.9954 7.71109L16.2877 6.98409L18.6897 4.57659L19.3972 5.30909L16.9954 7.71109ZM18.5762 12.4996V11.4996H21.9607V12.4996H18.5762ZM18.6897 19.3976L16.2877 16.9958L17.0147 16.2688L19.4222 18.6651L18.6897 19.3976ZM7.02217 7.73034L4.58192 5.29009L5.31467 4.59584L7.72992 7.02259L7.02217 7.73034ZM6.57617 19.1151H10.6914C11.2363 19.1151 11.7058 18.9179 12.1002 18.5236C12.4943 18.1294 12.6914 17.6599 12.6914 17.1151C12.6914 16.5701 12.5017 16.1037 12.1222 15.7158C11.7427 15.328 11.2805 15.1341 10.7357 15.1341H9.76842L9.40292 14.2611C9.14409 13.6598 8.74217 13.1838 8.19717 12.8333C7.65234 12.4827 7.04784 12.3073 6.38367 12.3073C5.46067 12.3073 4.67867 12.6278 4.03767 13.2688C3.39667 13.9098 3.07617 14.6919 3.07617 15.6151C3.07617 16.5894 3.41592 17.4163 4.09542 18.0958C4.77492 18.7753 5.60184 19.1151 6.57617 19.1151ZM6.57617 20.1151C5.33384 20.1151 4.27326 19.6756 3.39442 18.7966C2.51559 17.9178 2.07617 16.8573 2.07617 15.6151C2.07617 14.4111 2.49317 13.3922 3.32717 12.5583C4.16101 11.7243 5.17984 11.3073 6.38367 11.3073C7.29401 11.3073 8.12 11.5653 8.86167 12.0813C9.60334 12.5973 10.1293 13.2816 10.4397 14.1341C11.278 14.1341 12.0263 14.3867 12.6847 14.8918C13.343 15.397 13.6786 16.1432 13.6914 17.1303C13.6838 17.9522 13.3905 18.6551 12.8117 19.2391C12.2328 19.8231 11.5261 20.1151 10.6914 20.1151H6.57617ZM13.6529 16.7458C13.6081 16.5792 13.5633 16.4176 13.5184 16.2611C13.4736 16.1048 13.4287 15.9433 13.3837 15.7766C14.1722 15.4471 14.8053 14.9458 15.2829 14.2726C15.7604 13.5996 15.9992 12.8419 15.9992 11.9996C15.9992 10.8996 15.6075 9.95792 14.8242 9.17459C14.0408 8.39125 13.0992 7.99959 11.9992 7.99959C10.9607 7.99959 10.06 8.347 9.29717 9.04184C8.53434 9.73667 8.11192 10.6033 8.02992 11.6418C7.86326 11.597 7.69467 11.5541 7.52417 11.5131C7.35367 11.4721 7.18509 11.4291 7.01842 11.3841C7.17476 10.1226 7.72767 9.0765 8.67717 8.24584C9.6265 7.415 10.7338 6.99959 11.9992 6.99959C13.3838 6.99959 14.5633 7.48675 15.5377 8.46109C16.512 9.43542 16.9992 10.6149 16.9992 11.9996C16.9992 13.0649 16.6934 14.0268 16.0819 14.8851C15.4704 15.7434 14.6608 16.3637 13.6529 16.7458Z" fill="#E3E3E3"/>
</svg>
