<svg width="24" height="24" viewBox="0 0 24 24" fill="none" xmlns="http://www.w3.org/2000/svg">
<path d="M8.21871 18.4385C8.09688 18.4948 7.97088 18.5028 7.84071 18.4625C7.71071 18.4222 7.61746 18.3411 7.56096 18.2192L1.56096 6.21923C1.50463 6.0974 1.49663 5.9714 1.53696 5.84123C1.5773 5.71123 1.65838 5.61798 1.78021 5.56148C1.90205 5.50515 2.02805 5.49715 2.15821 5.53748C2.28821 5.57782 2.38146 5.6589 2.43796 5.78073L8.45721 17.7807C8.51355 17.9026 8.5183 18.0253 8.47146 18.149C8.4248 18.2727 8.34055 18.3692 8.21871 18.4385ZM12.8937 18.4385C12.7719 18.5077 12.6427 18.5188 12.5062 18.472C12.3697 18.4253 12.2732 18.3411 12.2167 18.2192L6.21671 6.21923C6.16038 6.0974 6.15238 5.9714 6.19271 5.84123C6.23305 5.71123 6.31413 5.61798 6.43596 5.56148C6.5578 5.50515 6.68605 5.49715 6.82071 5.53748C6.95521 5.57782 7.05071 5.6589 7.10721 5.78073L13.1322 17.7807C13.1885 17.9026 13.1933 18.0253 13.1465 18.149C13.0998 18.2727 13.0155 18.3692 12.8937 18.4385ZM17.5687 18.4327C17.4469 18.5019 17.3177 18.5141 17.1812 18.4692C17.0447 18.4244 16.9482 18.3411 16.8917 18.2192L10.8917 6.21923C10.8354 6.0974 10.8274 5.96823 10.8677 5.83173C10.908 5.69523 10.9891 5.59873 11.111 5.54223C11.2328 5.4859 11.361 5.48115 11.4957 5.52798C11.6302 5.57465 11.7257 5.6589 11.7822 5.78073L17.788 17.7615C17.8443 17.8833 17.8523 18.0083 17.812 18.1365C17.7716 18.2647 17.6905 18.3634 17.5687 18.4327ZM22.2187 18.4385C22.0969 18.4948 21.9709 18.5028 21.8407 18.4625C21.7107 18.4222 21.6175 18.3411 21.561 18.2192L15.561 6.21923C15.5046 6.0974 15.4966 5.96823 15.537 5.83173C15.5773 5.69523 15.6584 5.59873 15.7802 5.54223C15.902 5.4859 16.0312 5.48115 16.1677 5.52798C16.3042 5.57465 16.4007 5.6589 16.4572 5.78073L22.4572 17.7807C22.5135 17.9026 22.5183 18.0286 22.4715 18.1587C22.4248 18.2887 22.3405 18.382 22.2187 18.4385Z" fill="#E3E3E3"/>
</svg>
