<svg width="24" height="24" viewBox="0 0 24 24" fill="none" xmlns="http://www.w3.org/2000/svg">
<path d="M6.00358 14.8269C5.78374 14.8269 5.59049 14.7438 5.42383 14.5776C5.25716 14.4116 5.17383 14.2179 5.17383 13.9966C5.17383 13.7641 5.25691 13.5687 5.42308 13.4104C5.58908 13.252 5.78274 13.1729 6.00408 13.1729C6.23658 13.1729 6.43199 13.2525 6.59033 13.4119C6.74866 13.5712 6.82783 13.7663 6.82783 13.9971C6.82783 14.2169 6.74816 14.4102 6.58883 14.5769C6.42949 14.7435 6.23441 14.8269 6.00358 14.8269ZM6.00358 6.82685C5.78374 6.82685 5.59049 6.74377 5.42383 6.5776C5.25716 6.4116 5.17383 6.21794 5.17383 5.9966C5.17383 5.7641 5.25691 5.56868 5.42308 5.41035C5.58908 5.25202 5.78274 5.17285 6.00408 5.17285C6.23658 5.17285 6.43199 5.25252 6.59033 5.41185C6.74866 5.57118 6.82783 5.76627 6.82783 5.9971C6.82783 6.21694 6.74816 6.41019 6.58883 6.57685C6.42949 6.74352 6.23441 6.82685 6.00358 6.82685ZM9.00358 18.8269C8.78374 18.8269 8.5905 18.7438 8.42383 18.5776C8.25716 18.4116 8.17383 18.2179 8.17383 17.9966C8.17383 17.7641 8.25691 17.5687 8.42308 17.4104C8.58908 17.252 8.78275 17.1729 9.00408 17.1729C9.23658 17.1729 9.43199 17.2525 9.59033 17.4119C9.74866 17.5712 9.82783 17.7663 9.82783 17.9971C9.82783 18.2169 9.74816 18.4102 9.58883 18.5769C9.42949 18.7435 9.23441 18.8269 9.00358 18.8269ZM9.00358 10.8269C8.78374 10.8269 8.5905 10.7438 8.42383 10.5776C8.25716 10.4116 8.17383 10.2179 8.17383 9.9966C8.17383 9.7641 8.25691 9.56869 8.42308 9.41035C8.58908 9.25202 8.78275 9.17285 9.00408 9.17285C9.23658 9.17285 9.43199 9.25252 9.59033 9.41185C9.74866 9.57119 9.82783 9.76627 9.82783 9.9971C9.82783 10.2169 9.74816 10.4102 9.58883 10.5769C9.42949 10.7435 9.23441 10.8269 9.00358 10.8269ZM12.0036 14.8269C11.7837 14.8269 11.5905 14.7438 11.4238 14.5776C11.2572 14.4116 11.1738 14.2179 11.1738 13.9966C11.1738 13.7641 11.2569 13.5687 11.4231 13.4104C11.5891 13.252 11.7827 13.1729 12.0041 13.1729C12.2366 13.1729 12.432 13.2525 12.5903 13.4119C12.7487 13.5712 12.8278 13.7663 12.8278 13.9971C12.8278 14.2169 12.7482 14.4102 12.5888 14.5769C12.4295 14.7435 12.2344 14.8269 12.0036 14.8269ZM12.0036 6.82685C11.7837 6.82685 11.5905 6.74377 11.4238 6.5776C11.2572 6.4116 11.1738 6.21794 11.1738 5.9966C11.1738 5.7641 11.2569 5.56868 11.4231 5.41035C11.5891 5.25202 11.7827 5.17285 12.0041 5.17285C12.2366 5.17285 12.432 5.25252 12.5903 5.41185C12.7487 5.57118 12.8278 5.76627 12.8278 5.9971C12.8278 6.21694 12.7482 6.41019 12.5888 6.57685C12.4295 6.74352 12.2344 6.82685 12.0036 6.82685ZM15.0036 18.8269C14.7837 18.8269 14.5905 18.7438 14.4238 18.5776C14.2572 18.4116 14.1738 18.2179 14.1738 17.9966C14.1738 17.7641 14.2569 17.5687 14.4231 17.4104C14.5891 17.252 14.7827 17.1729 15.0041 17.1729C15.2366 17.1729 15.432 17.2525 15.5903 17.4119C15.7487 17.5712 15.8278 17.7663 15.8278 17.9971C15.8278 18.2169 15.7482 18.4102 15.5888 18.5769C15.4295 18.7435 15.2344 18.8269 15.0036 18.8269ZM15.0036 10.8269C14.7837 10.8269 14.5905 10.7438 14.4238 10.5776C14.2572 10.4116 14.1738 10.2179 14.1738 9.9966C14.1738 9.7641 14.2569 9.56869 14.4231 9.41035C14.5891 9.25202 14.7827 9.17285 15.0041 9.17285C15.2366 9.17285 15.432 9.25252 15.5903 9.41185C15.7487 9.57119 15.8278 9.76627 15.8278 9.9971C15.8278 10.2169 15.7482 10.4102 15.5888 10.5769C15.4295 10.7435 15.2344 10.8269 15.0036 10.8269ZM18.0036 14.8269C17.7837 14.8269 17.5905 14.7438 17.4238 14.5776C17.2572 14.4116 17.1738 14.2179 17.1738 13.9966C17.1738 13.7641 17.2569 13.5687 17.4231 13.4104C17.5891 13.252 17.7827 13.1729 18.0041 13.1729C18.2366 13.1729 18.432 13.2525 18.5903 13.4119C18.7487 13.5712 18.8278 13.7663 18.8278 13.9971C18.8278 14.2169 18.7482 14.4102 18.5888 14.5769C18.4295 14.7435 18.2344 14.8269 18.0036 14.8269ZM18.0036 6.82685C17.7837 6.82685 17.5905 6.74377 17.4238 6.5776C17.2572 6.4116 17.1738 6.21794 17.1738 5.9966C17.1738 5.7641 17.2569 5.56868 17.4231 5.41035C17.5891 5.25202 17.7827 5.17285 18.0041 5.17285C18.2366 5.17285 18.432 5.25252 18.5903 5.41185C18.7487 5.57118 18.8278 5.76627 18.8278 5.9971C18.8278 6.21694 18.7482 6.41019 18.5888 6.57685C18.4295 6.74352 18.2344 6.82685 18.0036 6.82685Z" fill="#E3E3E3"/>
</svg>
