<svg width="24" height="24" viewBox="0 0 24 24" fill="none" xmlns="http://www.w3.org/2000/svg">
<path d="M5.00103 18.731C4.7942 18.731 4.62053 18.661 4.48003 18.521C4.3397 18.3812 4.26953 18.2079 4.26953 18.001C4.26953 17.7942 4.33953 17.6205 4.47953 17.48C4.61936 17.3397 4.7927 17.2695 4.99953 17.2695C5.20636 17.2695 5.38003 17.3395 5.52053 17.4795C5.66087 17.6194 5.73103 17.7927 5.73103 17.9995C5.73103 18.2064 5.66103 18.38 5.52103 18.5205C5.3812 18.6609 5.20786 18.731 5.00103 18.731ZM9.50103 18.731C9.2942 18.731 9.12053 18.661 8.98003 18.521C8.8397 18.3812 8.76953 18.2079 8.76953 18.001C8.76953 17.7942 8.83953 17.6205 8.97953 17.48C9.11937 17.3397 9.2927 17.2695 9.49953 17.2695C9.70637 17.2695 9.88003 17.3395 10.0205 17.4795C10.1609 17.6194 10.231 17.7927 10.231 17.9995C10.231 18.2064 10.161 18.38 10.021 18.5205C9.8812 18.6609 9.70787 18.731 9.50103 18.731ZM14.001 18.731C13.7942 18.731 13.6205 18.661 13.48 18.521C13.3397 18.3812 13.2695 18.2079 13.2695 18.001C13.2695 17.7942 13.3395 17.6205 13.4795 17.48C13.6194 17.3397 13.7927 17.2695 13.9995 17.2695C14.2064 17.2695 14.38 17.3395 14.5205 17.4795C14.6609 17.6194 14.731 17.7927 14.731 17.9995C14.731 18.2064 14.661 18.38 14.521 18.5205C14.3812 18.6609 14.2079 18.731 14.001 18.731ZM18.501 18.731C18.2942 18.731 18.1205 18.661 17.98 18.521C17.8397 18.3812 17.7695 18.2079 17.7695 18.001C17.7695 17.7942 17.8395 17.6205 17.9795 17.48C18.1194 17.3397 18.2927 17.2695 18.4995 17.2695C18.7064 17.2695 18.88 17.3395 19.0205 17.4795C19.1609 17.6194 19.231 17.7927 19.231 17.9995C19.231 18.2064 19.161 18.38 19.021 18.5205C18.8812 18.6609 18.7079 18.731 18.501 18.731ZM3.00103 14.731C2.7942 14.731 2.62053 14.661 2.48003 14.521C2.3397 14.3812 2.26953 14.2079 2.26953 14.001C2.26953 13.7942 2.33953 13.6205 2.47953 13.48C2.61936 13.3397 2.7927 13.2695 2.99953 13.2695C3.20636 13.2695 3.38003 13.3395 3.52053 13.4795C3.66086 13.6194 3.73103 13.7927 3.73103 13.9995C3.73103 14.2064 3.66103 14.38 3.52103 14.5205C3.3812 14.6609 3.20786 14.731 3.00103 14.731ZM7.50103 14.731C7.2942 14.731 7.12053 14.661 6.98003 14.521C6.8397 14.3812 6.76953 14.2079 6.76953 14.001C6.76953 13.7942 6.83953 13.6205 6.97953 13.48C7.11937 13.3397 7.2927 13.2695 7.49953 13.2695C7.70637 13.2695 7.88003 13.3395 8.02053 13.4795C8.16087 13.6194 8.23103 13.7927 8.23103 13.9995C8.23103 14.2064 8.16103 14.38 8.02103 14.5205C7.8812 14.6609 7.70787 14.731 7.50103 14.731ZM12.001 14.731C11.7942 14.731 11.6205 14.661 11.48 14.521C11.3397 14.3812 11.2695 14.2079 11.2695 14.001C11.2695 13.7942 11.3395 13.6205 11.4795 13.48C11.6194 13.3397 11.7927 13.2695 11.9995 13.2695C12.2064 13.2695 12.38 13.3395 12.5205 13.4795C12.6609 13.6194 12.731 13.7927 12.731 13.9995C12.731 14.2064 12.661 14.38 12.521 14.5205C12.3812 14.6609 12.2079 14.731 12.001 14.731ZM16.501 14.731C16.2942 14.731 16.1205 14.661 15.98 14.521C15.8397 14.3812 15.7695 14.2079 15.7695 14.001C15.7695 13.7942 15.8395 13.6205 15.9795 13.48C16.1194 13.3397 16.2927 13.2695 16.4995 13.2695C16.7064 13.2695 16.88 13.3395 17.0205 13.4795C17.1609 13.6194 17.231 13.7927 17.231 13.9995C17.231 14.2064 17.161 14.38 17.021 14.5205C16.8812 14.6609 16.7079 14.731 16.501 14.731ZM21.001 14.731C20.7942 14.731 20.6205 14.661 20.48 14.521C20.3397 14.3812 20.2695 14.2079 20.2695 14.001C20.2695 13.7942 20.3395 13.6205 20.4795 13.48C20.6194 13.3397 20.7927 13.2695 20.9995 13.2695C21.2064 13.2695 21.38 13.3395 21.5205 13.4795C21.6609 13.6194 21.731 13.7927 21.731 13.9995C21.731 14.2064 21.661 14.38 21.521 14.5205C21.3812 14.6609 21.2079 14.731 21.001 14.731ZM5.00103 10.731C4.7942 10.731 4.62053 10.661 4.48003 10.521C4.3397 10.3812 4.26953 10.2079 4.26953 10.001C4.26953 9.7942 4.33953 9.62053 4.47953 9.48003C4.61936 9.3397 4.7927 9.26953 4.99953 9.26953C5.20636 9.26953 5.38003 9.33953 5.52053 9.47953C5.66087 9.61936 5.73103 9.7927 5.73103 9.99953C5.73103 10.2064 5.66103 10.38 5.52103 10.5205C5.3812 10.6609 5.20786 10.731 5.00103 10.731ZM9.50103 10.731C9.2942 10.731 9.12053 10.661 8.98003 10.521C8.8397 10.3812 8.76953 10.2079 8.76953 10.001C8.76953 9.7942 8.83953 9.62053 8.97953 9.48003C9.11937 9.3397 9.2927 9.26953 9.49953 9.26953C9.70637 9.26953 9.88003 9.33953 10.0205 9.47953C10.1609 9.61936 10.231 9.7927 10.231 9.99953C10.231 10.2064 10.161 10.38 10.021 10.5205C9.8812 10.6609 9.70787 10.731 9.50103 10.731ZM14.001 10.731C13.7942 10.731 13.6205 10.661 13.48 10.521C13.3397 10.3812 13.2695 10.2079 13.2695 10.001C13.2695 9.7942 13.3395 9.62053 13.4795 9.48003C13.6194 9.3397 13.7927 9.26953 13.9995 9.26953C14.2064 9.26953 14.38 9.33953 14.5205 9.47953C14.6609 9.61936 14.731 9.7927 14.731 9.99953C14.731 10.2064 14.661 10.38 14.521 10.5205C14.3812 10.6609 14.2079 10.731 14.001 10.731ZM18.501 10.731C18.2942 10.731 18.1205 10.661 17.98 10.521C17.8397 10.3812 17.7695 10.2079 17.7695 10.001C17.7695 9.7942 17.8395 9.62053 17.9795 9.48003C18.1194 9.3397 18.2927 9.26953 18.4995 9.26953C18.7064 9.26953 18.88 9.33953 19.0205 9.47953C19.1609 9.61936 19.231 9.7927 19.231 9.99953C19.231 10.2064 19.161 10.38 19.021 10.5205C18.8812 10.6609 18.7079 10.731 18.501 10.731ZM3.00103 6.73103C2.7942 6.73103 2.62053 6.66103 2.48003 6.52103C2.3397 6.3812 2.26953 6.20786 2.26953 6.00103C2.26953 5.7942 2.33953 5.62053 2.47953 5.48003C2.61936 5.3397 2.7927 5.26953 2.99953 5.26953C3.20636 5.26953 3.38003 5.33953 3.52053 5.47953C3.66086 5.61936 3.73103 5.7927 3.73103 5.99953C3.73103 6.20636 3.66103 6.38003 3.52103 6.52053C3.3812 6.66086 3.20786 6.73103 3.00103 6.73103ZM7.50103 6.73103C7.2942 6.73103 7.12053 6.66103 6.98003 6.52103C6.8397 6.3812 6.76953 6.20786 6.76953 6.00103C6.76953 5.7942 6.83953 5.62053 6.97953 5.48003C7.11937 5.3397 7.2927 5.26953 7.49953 5.26953C7.70637 5.26953 7.88003 5.33953 8.02053 5.47953C8.16087 5.61936 8.23103 5.7927 8.23103 5.99953C8.23103 6.20636 8.16103 6.38003 8.02103 6.52053C7.8812 6.66086 7.70787 6.73103 7.50103 6.73103ZM12.001 6.73103C11.7942 6.73103 11.6205 6.66103 11.48 6.52103C11.3397 6.3812 11.2695 6.20786 11.2695 6.00103C11.2695 5.7942 11.3395 5.62053 11.4795 5.48003C11.6194 5.3397 11.7927 5.26953 11.9995 5.26953C12.2064 5.26953 12.38 5.33953 12.5205 5.47953C12.6609 5.61936 12.731 5.7927 12.731 5.99953C12.731 6.20636 12.661 6.38003 12.521 6.52053C12.3812 6.66086 12.2079 6.73103 12.001 6.73103ZM16.501 6.73103C16.2942 6.73103 16.1205 6.66103 15.98 6.52103C15.8397 6.3812 15.7695 6.20786 15.7695 6.00103C15.7695 5.7942 15.8395 5.62053 15.9795 5.48003C16.1194 5.3397 16.2927 5.26953 16.4995 5.26953C16.7064 5.26953 16.88 5.33953 17.0205 5.47953C17.1609 5.61936 17.231 5.7927 17.231 5.99953C17.231 6.20636 17.161 6.38003 17.021 6.52053C16.8812 6.66086 16.7079 6.73103 16.501 6.73103ZM21.001 6.73103C20.7942 6.73103 20.6205 6.66103 20.48 6.52103C20.3397 6.3812 20.2695 6.20786 20.2695 6.00103C20.2695 5.7942 20.3395 5.62053 20.4795 5.48003C20.6194 5.3397 20.7927 5.26953 20.9995 5.26953C21.2064 5.26953 21.38 5.33953 21.5205 5.47953C21.6609 5.61936 21.731 5.7927 21.731 5.99953C21.731 6.20636 21.661 6.38003 21.521 6.52053C21.3812 6.66086 21.2079 6.73103 21.001 6.73103Z" fill="#E3E3E3"/>
</svg>
