<svg width="24" height="24" viewBox="0 0 24 24" fill="none" xmlns="http://www.w3.org/2000/svg">
<path d="M8.40375 21.8463L9.15 19.6923H7.55775L8.6155 16.7308H10.3463L9.44425 18.8463H11.1923L8.8655 21.8463H8.40375ZM14.1155 21L14.7193 19.2693H13.0577L13.9595 16.7308H15.6905L14.9693 18.423H16.6923L14.577 21H14.1155ZM7.5 15.5C6.1115 15.5 4.93108 15.0138 3.95875 14.0413C2.98625 13.0689 2.5 11.8885 2.5 10.5C2.5 9.20633 2.93592 8.08775 3.80775 7.14425C4.67958 6.20058 5.77125 5.65633 7.08275 5.5115C7.57758 4.57433 8.25542 3.83817 9.11625 3.303C9.97725 2.76767 10.9385 2.5 12 2.5C13.4358 2.5 14.6695 2.976 15.701 3.928C16.7323 4.87983 17.3327 6.066 17.502 7.4865C18.7288 7.56083 19.7019 7.98775 20.4212 8.76725C21.1404 9.54675 21.5 10.4577 21.5 11.5C21.5 12.609 21.1106 13.5529 20.3318 14.3318C19.5529 15.1106 18.609 15.5 17.5 15.5H7.5ZM7.5 14.5H17.5C18.3282 14.5 19.0352 14.2071 19.6213 13.6213C20.2071 13.0353 20.5 12.3282 20.5 11.5C20.5 10.6718 20.2071 9.96475 19.6213 9.37875C19.0352 8.79292 18.3282 8.5 17.5 8.5H16.5V8C16.5 6.759 16.0602 5.69875 15.1807 4.81925C14.3012 3.93975 13.241 3.5 12 3.5C11.0975 3.5 10.2754 3.7455 9.53375 4.2365C8.79208 4.7275 8.23533 5.38458 7.8635 6.20775L7.748 6.5H7.45C6.359 6.53333 5.42792 6.93558 4.65675 7.70675C3.88558 8.47792 3.5 9.409 3.5 10.5C3.5 11.6077 3.88975 12.5513 4.66925 13.3308C5.44875 14.1103 6.39233 14.5 7.5 14.5Z" fill="#E3E3E3"/>
</svg>
