<svg width="24" height="24" viewBox="0 0 24 24" fill="none" xmlns="http://www.w3.org/2000/svg">
<path d="M6.5 18.577C6.27817 18.577 6.08492 18.4946 5.92025 18.3298C5.75542 18.1651 5.673 17.9718 5.673 17.75C5.673 17.5282 5.75542 17.3349 5.92025 17.1703C6.08492 17.0054 6.27817 16.923 6.5 16.923C6.72183 16.923 6.91508 17.0054 7.07975 17.1703C7.24458 17.3349 7.327 17.5282 7.327 17.75C7.327 17.9718 7.24458 18.1651 7.07975 18.3298C6.91508 18.4946 6.72183 18.577 6.5 18.577ZM9.5 21.577C9.27817 21.577 9.08492 21.4946 8.92025 21.3298C8.75542 21.1651 8.673 20.9718 8.673 20.75C8.673 20.5282 8.75542 20.3349 8.92025 20.1703C9.08492 20.0054 9.27817 19.923 9.5 19.923C9.72183 19.923 9.91508 20.0054 10.0798 20.1703C10.2446 20.3349 10.327 20.5282 10.327 20.75C10.327 20.9718 10.2446 21.1651 10.0798 21.3298C9.91508 21.4946 9.72183 21.577 9.5 21.577ZM12.5 18.577C12.2782 18.577 12.0849 18.4946 11.9202 18.3298C11.7554 18.1651 11.673 17.9718 11.673 17.75C11.673 17.5282 11.7554 17.3349 11.9202 17.1703C12.0849 17.0054 12.2782 16.923 12.5 16.923C12.7218 16.923 12.9151 17.0054 13.0798 17.1703C13.2446 17.3349 13.327 17.5282 13.327 17.75C13.327 17.9718 13.2446 18.1651 13.0798 18.3298C12.9151 18.4946 12.7218 18.577 12.5 18.577ZM18.5 18.577C18.2782 18.577 18.0849 18.4946 17.9202 18.3298C17.7554 18.1651 17.673 17.9718 17.673 17.75C17.673 17.5282 17.7554 17.3349 17.9202 17.1703C18.0849 17.0054 18.2782 16.923 18.5 16.923C18.7218 16.923 18.9151 17.0054 19.0798 17.1703C19.2446 17.3349 19.327 17.5282 19.327 17.75C19.327 17.9718 19.2446 18.1651 19.0798 18.3298C18.9151 18.4946 18.7218 18.577 18.5 18.577ZM15.5 21.577C15.2782 21.577 15.0849 21.4946 14.9202 21.3298C14.7554 21.1651 14.673 20.9718 14.673 20.75C14.673 20.5282 14.7554 20.3349 14.9202 20.1703C15.0849 20.0054 15.2782 19.923 15.5 19.923C15.7218 19.923 15.9151 20.0054 16.0798 20.1703C16.2446 20.3349 16.327 20.5282 16.327 20.75C16.327 20.9718 16.2446 21.1651 16.0798 21.3298C15.9151 21.4946 15.7218 21.577 15.5 21.577ZM7.5 14.5C6.1115 14.5 4.93108 14.0138 3.95875 13.0413C2.98625 12.0689 2.5 10.8885 2.5 9.5C2.5 8.20633 2.93592 7.08775 3.80775 6.14425C4.67958 5.20058 5.77125 4.65633 7.08275 4.5115C7.57875 3.5735 8.25692 2.83708 9.11725 2.30225C9.97758 1.76742 10.936 1.5 11.9925 1.5C13.4333 1.5 14.6695 1.976 15.701 2.928C16.7323 3.87983 17.3327 5.066 17.502 6.4865C18.7288 6.56083 19.7019 6.98775 20.4212 7.76725C21.1404 8.54675 21.5 9.45958 21.5 10.5058C21.5 11.6109 21.1111 12.5529 20.3333 13.3318C19.5556 14.1106 18.6112 14.5 17.5 14.5H7.5ZM7.5 13.5H17.5C18.3282 13.5 19.0352 13.2071 19.6213 12.6213C20.2071 12.0353 20.5 11.3282 20.5 10.5C20.5 9.67183 20.2071 8.96475 19.6213 8.37875C19.0352 7.79292 18.3282 7.5 17.5 7.5H16.5V7C16.5 5.7625 16.0591 4.70317 15.1773 3.822C14.2954 2.94067 13.2353 2.5 11.997 2.5C11.0965 2.5 10.2762 2.74442 9.536 3.23325C8.79567 3.72225 8.23817 4.38042 7.8635 5.20775L7.74525 5.5H7.45C6.36233 5.53817 5.43208 5.94292 4.65925 6.71425C3.88642 7.48575 3.5 8.41433 3.5 9.5C3.5 10.6048 3.8905 11.5477 4.6715 12.3285C5.45233 13.1095 6.39517 13.5 7.5 13.5Z" fill="#E3E3E3"/>
</svg>
