<svg width="66" height="31" viewBox="0 0 66 31" fill="none" xmlns="http://www.w3.org/2000/svg">
<path d="M40.888 20.2192C40.264 20.2192 39.708 20.0512 39.22 19.7152C38.74 19.3712 38.36 18.8912 38.08 18.2752C37.808 17.6512 37.672 16.9232 37.672 16.0912C37.672 15.2592 37.808 14.5392 38.08 13.9312C38.36 13.3152 38.74 12.8432 39.22 12.5152C39.708 12.1792 40.264 12.0112 40.888 12.0112C41.512 12.0112 42.064 12.1792 42.544 12.5152C43.032 12.8432 43.412 13.3152 43.684 13.9312C43.964 14.5392 44.104 15.2592 44.104 16.0912C44.104 16.9232 43.964 17.6512 43.684 18.2752C43.412 18.8912 43.032 19.3712 42.544 19.7152C42.064 20.0512 41.512 20.2192 40.888 20.2192ZM40.888 19.8592C41.448 19.8592 41.936 19.7032 42.352 19.3912C42.776 19.0792 43.104 18.6432 43.336 18.0832C43.576 17.5152 43.696 16.8512 43.696 16.0912C43.696 15.3312 43.576 14.6752 43.336 14.1232C43.104 13.5632 42.776 13.1312 42.352 12.8272C41.936 12.5232 41.448 12.3712 40.888 12.3712C40.328 12.3712 39.836 12.5232 39.412 12.8272C38.996 13.1312 38.668 13.5632 38.428 14.1232C38.196 14.6752 38.08 15.3312 38.08 16.0912C38.08 16.8512 38.196 17.5152 38.428 18.0832C38.668 18.6432 38.996 19.0792 39.412 19.3912C39.836 19.7032 40.328 19.8592 40.888 19.8592ZM47.9973 20.2192C47.4133 20.2192 46.9013 20.1072 46.4613 19.8832C46.0293 19.6512 45.6613 19.3632 45.3573 19.0192L45.6213 18.7792C45.9013 19.1072 46.2453 19.3712 46.6533 19.5712C47.0693 19.7632 47.5173 19.8592 47.9973 19.8592C48.6373 19.8592 49.1453 19.7032 49.5213 19.3912C49.8973 19.0712 50.0853 18.6592 50.0853 18.1552C50.0853 17.8032 50.0173 17.5232 49.8813 17.3152C49.7453 17.0992 49.5653 16.9232 49.3413 16.7872C49.1253 16.6512 48.8853 16.5232 48.6213 16.4032L47.3973 15.8512C47.1653 15.7472 46.9253 15.6192 46.6773 15.4672C46.4293 15.3072 46.2173 15.1032 46.0413 14.8552C45.8733 14.6072 45.7893 14.2912 45.7893 13.9072C45.7893 13.5312 45.8853 13.2032 46.0773 12.9232C46.2693 12.6352 46.5333 12.4112 46.8693 12.2512C47.2053 12.0912 47.5893 12.0112 48.0213 12.0112C48.5013 12.0112 48.9253 12.1072 49.2933 12.2992C49.6613 12.4832 49.9573 12.6992 50.1813 12.9472L49.9653 13.1872C49.7253 12.9472 49.4453 12.7512 49.1253 12.5992C48.8053 12.4472 48.4373 12.3712 48.0213 12.3712C47.4693 12.3712 47.0213 12.5112 46.6773 12.7912C46.3413 13.0632 46.1733 13.4272 46.1733 13.8832C46.1733 14.2112 46.2493 14.4792 46.4013 14.6872C46.5533 14.8872 46.7373 15.0512 46.9533 15.1792C47.1773 15.2992 47.3813 15.4032 47.5653 15.4912L48.7893 16.0432C49.0933 16.1792 49.3733 16.3312 49.6293 16.4992C49.8853 16.6672 50.0893 16.8792 50.2413 17.1352C50.3933 17.3912 50.4693 17.7232 50.4693 18.1312C50.4693 18.5312 50.3693 18.8912 50.1693 19.2112C49.9693 19.5232 49.6813 19.7712 49.3053 19.9552C48.9373 20.1312 48.5013 20.2192 47.9973 20.2192ZM51.6188 20.0752V15.1152H53.0888V20.0752H51.6188ZM52.3488 14.3852C52.1021 14.3852 51.9021 14.3152 51.7488 14.1752C51.5954 14.0352 51.5188 13.8485 51.5188 13.6152C51.5188 13.3819 51.5954 13.1952 51.7488 13.0552C51.9021 12.9152 52.1021 12.8452 52.3488 12.8452C52.5954 12.8452 52.7954 12.9152 52.9488 13.0552C53.1021 13.1952 53.1788 13.3819 53.1788 13.6152C53.1788 13.8485 53.1021 14.0352 52.9488 14.1752C52.7954 14.3152 52.5954 14.3852 52.3488 14.3852ZM54.3824 20.0752V15.1152H55.5824L55.6824 15.9752H55.7224C55.9024 15.6485 56.1158 15.4052 56.3624 15.2452C56.6158 15.0785 56.8724 14.9952 57.1324 14.9952C57.2724 14.9952 57.3891 15.0052 57.4824 15.0252C57.5758 15.0385 57.6558 15.0619 57.7224 15.0952L57.4424 16.3452C57.3624 16.3252 57.2858 16.3119 57.2124 16.3052C57.1391 16.2919 57.0491 16.2852 56.9424 16.2852C56.7558 16.2852 56.5591 16.3519 56.3524 16.4852C56.1524 16.6185 55.9858 16.8585 55.8524 17.2052V20.0752H54.3824ZM58.3668 20.0752V15.1152H59.8368V20.0752H58.3668ZM59.0968 14.3852C58.8501 14.3852 58.6501 14.3152 58.4968 14.1752C58.3435 14.0352 58.2668 13.8485 58.2668 13.6152C58.2668 13.3819 58.3435 13.1952 58.4968 13.0552C58.6501 12.9152 58.8501 12.8452 59.0968 12.8452C59.3435 12.8452 59.5435 12.9152 59.6968 13.0552C59.8501 13.1952 59.9268 13.3819 59.9268 13.6152C59.9268 13.8485 59.8501 14.0352 59.6968 14.1752C59.5435 14.3152 59.3435 14.3852 59.0968 14.3852ZM62.5905 20.1952C62.2638 20.1952 61.9271 20.1319 61.5805 20.0052C61.2338 19.8785 60.9371 19.6952 60.6905 19.4552L61.3105 18.6252C61.5371 18.8052 61.7605 18.9319 61.9805 19.0052C62.2071 19.0719 62.4238 19.1052 62.6305 19.1052C62.8505 19.1052 63.0105 19.0685 63.1105 18.9952C63.2105 18.9152 63.2605 18.8085 63.2605 18.6752C63.2605 18.5685 63.2138 18.4785 63.1205 18.4052C63.0338 18.3319 62.9171 18.2685 62.7705 18.2152C62.6305 18.1552 62.4705 18.0919 62.2905 18.0252C62.0505 17.9385 61.8305 17.8285 61.6305 17.6952C61.4305 17.5619 61.2705 17.4019 61.1505 17.2152C61.0305 17.0285 60.9705 16.8052 60.9705 16.5452C60.9705 16.0785 61.1438 15.7052 61.4905 15.4252C61.8371 15.1385 62.2938 14.9952 62.8605 14.9952C63.2205 14.9952 63.5471 15.0552 63.8405 15.1752C64.1405 15.2885 64.3971 15.4385 64.6105 15.6252L63.9805 16.4452C63.8005 16.3185 63.6205 16.2285 63.4405 16.1752C63.2605 16.1152 63.0805 16.0852 62.9005 16.0852C62.7138 16.0852 62.5738 16.1219 62.4805 16.1952C62.3871 16.2619 62.3405 16.3552 62.3405 16.4752C62.3405 16.5685 62.3705 16.6485 62.4305 16.7152C62.4971 16.7819 62.6005 16.8452 62.7405 16.9052C62.8805 16.9585 63.0538 17.0185 63.2605 17.0852C63.5138 17.1652 63.7438 17.2719 63.9505 17.4052C64.1638 17.5385 64.3305 17.7019 64.4505 17.8952C64.5705 18.0885 64.6305 18.3219 64.6305 18.5952C64.6305 18.8952 64.5505 19.1652 64.3905 19.4052C64.2371 19.6452 64.0105 19.8385 63.7105 19.9852C63.4105 20.1252 63.0371 20.1952 62.5905 20.1952Z" fill="white"/>
<path d="M13.7202 30.3028C13.7166 30.3527 13.7131 30.4025 13.7095 30.4524C14.0751 30.4868 14.4143 30.5137 14.7741 30.5343C16.3557 30.609 18.0084 30.6311 19.5324 29.9723C21.1105 29.3045 21.8764 27.7197 23.0688 26.7599C23.1256 26.7116 23.1839 26.6634 23.244 26.6153C25.5959 24.7769 29.1184 24.1482 30.7621 21.2897C30.9563 20.9851 31.1254 20.6793 31.2838 20.3547C31.2394 20.3318 31.1949 20.3088 31.1505 20.2859C30.9797 20.5983 30.8 20.8905 30.5979 21.18C28.8863 23.8898 25.5186 24.3632 22.9942 26.303C22.9309 26.3536 22.8695 26.4043 22.8097 26.4551C21.5424 27.4957 20.8174 29.0284 19.3858 29.6552C17.9836 30.3019 16.3516 30.3472 14.7813 30.337C14.4236 30.3314 14.0854 30.3204 13.7202 30.3028Z" fill="white"/>
<path d="M16.5862 30.5643C16.5873 30.6143 16.5884 30.6643 16.5896 30.7143C16.9451 30.7147 17.2923 30.7039 17.6337 30.6796C19.1561 30.5773 20.7437 30.1552 21.9097 29.0734C23.0778 28.0157 23.7558 26.5936 24.9393 25.7032C24.996 25.6591 25.0534 25.6156 25.1113 25.5724C27.6031 23.9196 30.6978 22.1765 31.5406 19C31.6481 18.666 31.7365 18.3329 31.812 17.9875C31.7634 17.9756 31.7148 17.9638 31.6663 17.952C31.5756 18.2892 31.4735 18.6127 31.354 18.9355C30.3789 22.0029 27.4646 23.5246 24.8725 25.2515C24.8124 25.2963 24.7528 25.3416 24.6938 25.3875C23.4238 26.3568 22.7537 27.8091 21.6746 28.8183C20.6047 29.8569 19.1148 30.3161 17.6154 30.4829C17.2806 30.5217 16.9382 30.5481 16.5862 30.5643Z" fill="white"/>
<path d="M11.387 29.5228C11.3712 29.5702 11.3554 29.6176 11.3396 29.6651C11.728 29.803 12.1319 29.8899 12.5405 29.9464C16.2442 30.3023 19.8945 29.246 23.2931 27.8835C23.7997 27.6661 24.3066 27.4298 24.785 27.1528C27.472 25.6031 30.0423 23.4428 31.1815 20.4681C31.3294 20.0853 31.4527 19.6933 31.5503 19.2947C31.502 19.2818 31.4537 19.2689 31.4054 19.2561C31.2933 19.6443 31.1573 20.0241 30.9986 20.3936C29.7756 23.2587 27.2483 25.2913 24.5868 26.8105C24.1305 27.0716 23.6327 27.3026 23.1359 27.5157C19.7911 28.8577 16.1899 29.967 12.5639 29.7503C12.1635 29.7099 11.768 29.6407 11.387 29.5228Z" fill="white"/>
<path d="M12.4264 29.913C12.4143 29.9615 12.4021 30.01 12.39 30.0585C12.7155 30.1484 13.0326 30.2243 13.3603 30.2869C14.6199 30.5326 15.9968 30.539 17.2204 30.0111C18.4551 29.5019 19.3891 28.543 20.4728 27.9381C20.8173 27.7457 21.164 27.5637 21.5169 27.3879C24.0988 26.0156 27.183 25.4195 29.3657 23.249C29.5934 23.0032 29.7981 22.7362 29.9734 22.451C29.9315 22.4238 29.8895 22.3965 29.8476 22.3693C29.6638 22.637 29.454 22.8847 29.2238 23.1116C27.0457 25.1025 23.9711 25.6386 21.3386 27.0299C20.9802 27.2084 20.6281 27.3946 20.2785 27.5926C19.1264 28.2523 18.2347 29.2002 17.0867 29.704C15.953 30.2289 14.6435 30.2769 13.393 30.0921C13.0687 30.0453 12.7525 29.9859 12.4264 29.913Z" fill="white"/>
<path d="M10.3449 29.1322C10.3272 29.1789 10.3095 29.2257 10.2918 29.2725C10.663 29.4217 11.0354 29.542 11.4242 29.6349C15.0447 30.5545 18.4461 28.325 21.2466 26.3694C21.3824 26.2801 21.5216 26.1904 21.6563 26.1068C24.4574 24.4953 28.3427 24.3425 30.5028 21.485C30.7471 21.171 30.9618 20.8393 31.1513 20.4881C31.1078 20.4635 31.0643 20.4388 31.0208 20.4142C30.8207 20.7503 30.5981 21.065 30.3492 21.3609C28.1592 24.0478 24.4419 24.0771 21.446 25.7671C21.3071 25.8529 21.1649 25.9444 21.0269 26.0351C18.186 28.0109 15.0087 30.1922 11.4665 29.442C11.0843 29.3659 10.7155 29.2633 10.3449 29.1322Z" fill="white"/>
<path d="M1.38164 15.7489C1.3815 15.7291 1.37358 15.7101 1.35953 15.696C1.34548 15.682 1.32646 15.6741 1.30664 15.6741C1.28682 15.6741 1.2678 15.682 1.25375 15.696C1.2397 15.7101 1.23178 15.7291 1.23164 15.7489C1.23164 15.7489 1.23164 15.7489 1.23164 15.7489C1.22308 16.9473 1.38861 18.1457 1.70431 19.3027C3.4884 25.8342 9.8732 30.8588 16.7191 30.8246C20.817 30.8527 24.7911 28.9786 27.6354 26.0833C30.3011 23.3765 32.1759 19.7199 32.1884 15.8539C32.1423 8.85144 27.2606 1.85699 20.2844 0.376113C19.114 0.111087 17.916 -0.00833642 16.7191 0.00019531C16.6993 0.000334784 16.6803 0.00825177 16.6663 0.0223045C16.6522 0.0363562 16.6444 0.0553751 16.6444 0.0751953C16.6444 0.0950155 16.6522 0.114034 16.6663 0.128086C16.6803 0.142139 16.6993 0.150056 16.7191 0.150195C17.9054 0.15833 19.0883 0.292479 20.2397 0.568468C27.092 2.1136 31.7975 9.02319 31.8135 15.8539C31.787 19.5893 29.9559 23.1589 27.351 25.802C24.571 28.6306 20.707 30.4613 16.7191 30.4532C10.0523 30.5209 3.73641 25.6677 1.89452 19.2495C1.56894 18.1128 1.38977 16.933 1.38164 15.7489Z" fill="white"/>
<circle cx="1.30614" cy="13.3979" r="1.10614" stroke="white" stroke-width="0.4"/>
</svg>
